<svg width="198" height="33" viewBox="0 0 198 33" fill="none" xmlns="http://www.w3.org/2000/svg">
<path d="M7.61719 25V23.9844H4.49219L11.1719 14.7656L17.3828 23.9844H14.5312V25H23.6328C23.6328 24.4271 23.4245 24.1016 23.0078 24.0234C22.8776 23.9974 22.7474 23.9844 22.6172 23.9844H21.3672L13.3203 12.0703L19.375 3.67188C19.8698 2.99479 20.4297 2.63021 21.0547 2.57812C21.1849 2.57812 21.3281 2.57812 21.4844 2.57812C22.0573 2.57812 22.3828 2.36979 22.4609 1.95312C22.487 1.82292 22.5 1.69271 22.5 1.5625H15.7031V2.57812H18.8281L12.6953 11.1328L6.91406 2.57812H9.72656V1.5625H0.585938V2.57812H3.00781L10.5078 13.75L3.82812 22.8906C3.28125 23.6198 2.47396 23.9844 1.40625 23.9844C0.833333 23.9844 0.507812 24.1927 0.429688 24.6094C0.403646 24.7396 0.390625 24.8698 0.390625 25H7.61719ZM32.8125 24.0234H30.8594V8.39844H24.8047V9.375H27.9297V21.6797C27.9297 22.8776 27.526 23.6068 26.7188 23.8672C26.3281 23.9714 25.6901 24.0234 24.8047 24.0234V25H33.7891C33.7891 24.4271 33.5938 24.1146 33.2031 24.0625C33.0729 24.0365 32.9427 24.0234 32.8125 24.0234ZM31.3281 2.69531C31.3281 1.78385 30.9245 1.13281 30.1172 0.742188C29.8047 0.611979 29.5052 0.546875 29.2188 0.546875C28.3073 0.546875 27.6562 0.963542 27.2656 1.79688C27.1354 2.08333 27.0703 2.38281 27.0703 2.69531C27.0703 3.65885 27.5 4.32292 28.3594 4.6875C28.6458 4.79167 28.9323 4.84375 29.2188 4.84375C30.1302 4.84375 30.7682 4.42708 31.1328 3.59375C31.263 3.30729 31.3281 3.00781 31.3281 2.69531ZM43.75 24.0234H41.9922V15.5859C42.0703 13.1641 42.9297 11.4193 44.5703 10.3516C45.2734 9.90885 45.9896 9.6875 46.7188 9.6875C48.3073 9.6875 49.388 10.4297 49.9609 11.9141C50.1953 12.513 50.3125 13.1901 50.3125 13.9453V21.6797C50.3125 22.8776 49.974 23.5938 49.2969 23.8281C48.9062 23.9583 48.2682 24.0234 47.3828 24.0234V25H56.1719C56.1719 24.4271 55.9766 24.1146 55.5859 24.0625C55.4818 24.0365 55.3516 24.0234 55.1953 24.0234H53.2422V14.3359C53.2422 11.7318 52.3438 9.86979 50.5469 8.75C49.7135 8.25521 48.8151 8.00781 47.8516 8.00781C45.9245 8.00781 44.3359 8.77604 43.0859 10.3125C42.6172 10.9115 42.2396 11.5755 41.9531 12.3047L41.7969 8.39844H36.1328V9.375H39.0625V21.6797C39.0625 22.8776 38.724 23.5938 38.0469 23.8281C37.6562 23.9583 37.0182 24.0234 36.1328 24.0234V25H44.7266C44.7266 24.4271 44.5312 24.1146 44.1406 24.0625C44.0365 24.0365 43.9062 24.0234 43.75 24.0234ZM62.2266 14.1797C62.2786 10.7422 63.5807 9.01042 66.1328 8.98438C68.6849 9.03646 69.974 10.7682 70 14.1797C69.9479 17.7214 68.6589 19.5052 66.1328 19.5312C63.5547 19.4792 62.2526 17.6953 62.2266 14.1797ZM66.1719 8.00781C63.8281 8.00781 61.9661 8.76302 60.5859 10.2734C59.5964 11.3932 59.1016 12.7083 59.1016 14.2188C59.1016 16.1979 60.0651 17.8385 61.9922 19.1406C62.1745 19.2708 62.3568 19.388 62.5391 19.4922C60.8724 19.4922 59.8307 20.2083 59.4141 21.6406C59.3359 21.9792 59.2969 22.3177 59.2969 22.6562C59.3229 24.0365 59.8828 25.0651 60.9766 25.7422C60.1172 26.6536 59.6875 27.5781 59.6875 28.5156C59.6875 29.9479 60.5339 31.0156 62.2266 31.7188C63.2943 32.1875 64.6094 32.4219 66.1719 32.4219C70.1302 32.4219 72.7474 31.4583 74.0234 29.5312C74.4401 28.8802 74.6484 28.1901 74.6484 27.4609C74.6484 25.2214 73.3594 23.9323 70.7812 23.5938C70.4427 23.5417 70.0911 23.5156 69.7266 23.5156L62.6172 23.3594C61.4193 23.2812 60.8073 22.7604 60.7812 21.7969C60.7812 21.1198 61.2109 20.6901 62.0703 20.5078C62.2526 20.4818 62.4479 20.4688 62.6562 20.4688L66.0938 20.5078C68.4115 20.5078 70.2604 19.7266 71.6406 18.1641C72.6302 17.0443 73.125 15.7161 73.125 14.1797C73.099 12.2266 72.3438 10.6641 70.8594 9.49219C71.0938 8.65885 71.5365 8.16406 72.1875 8.00781C72.2917 7.98177 72.3958 7.96875 72.5 7.96875C72.8646 7.96875 73.2552 8.16406 73.6719 8.55469C73.9583 8.8151 74.2188 8.94531 74.4531 8.94531C75.1042 8.78906 75.4818 8.3724 75.5859 7.69531C75.5859 6.88802 75.2083 6.34115 74.4531 6.05469C74.1667 5.95052 73.8802 5.89844 73.5938 5.89844C72.3698 5.89844 71.3802 6.44531 70.625 7.53906C70.3385 7.95573 70.1172 8.41146 69.9609 8.90625C68.7891 8.30729 67.526 8.00781 66.1719 8.00781ZM66.1719 31.4062C63.5938 31.4062 61.9661 30.7292 61.2891 29.375C61.1068 29.0104 61.0156 28.6458 61.0156 28.2812C61.0417 27.5781 61.3542 26.875 61.9531 26.1719C62.474 26.276 62.9036 26.3281 63.2422 26.3281L69.2578 26.4062C71.2109 26.4323 72.3438 26.875 72.6562 27.7344C72.7344 27.9427 72.7734 28.2031 72.7734 28.5156C72.7734 29.6615 71.7057 30.4948 69.5703 31.0156C68.5286 31.276 67.3958 31.4062 66.1719 31.4062ZM103.32 6.875C103.32 4.89583 102.383 3.42448 100.508 2.46094C99.2839 1.86198 97.8125 1.5625 96.0938 1.5625H85.1172V2.57812H88.2422V23.9844H85.1172V25H96.2109C99.5703 25 102.031 23.9323 103.594 21.7969C104.401 20.6771 104.805 19.4531 104.805 18.125C104.805 16.0417 103.88 14.4271 102.031 13.2812C101.172 12.7865 100.182 12.4349 99.0625 12.2266C100.938 11.5234 102.227 10.3385 102.93 8.67188C103.19 8.04688 103.32 7.44792 103.32 6.875ZM95.1562 2.57812C97.8385 2.57812 99.362 3.76302 99.7266 6.13281C99.7786 6.47135 99.8047 6.82292 99.8047 7.1875C99.8047 8.88021 99.1406 10.1562 97.8125 11.0156C97.0312 11.5104 96.1198 11.7578 95.0781 11.7578H91.6016V2.57812H95.1562ZM95.8203 12.8125C98.1901 12.8125 99.7786 13.8151 100.586 15.8203C100.898 16.5495 101.055 17.3438 101.055 18.2031C101.055 20.2083 100.404 21.7708 99.1016 22.8906C98.2422 23.6198 97.2135 23.9844 96.0156 23.9844H91.6016V12.8125H95.8203ZM116.289 8.98438C118.112 8.98438 119.323 9.7526 119.922 11.2891C120.13 11.7839 120.234 12.3177 120.234 12.8906C120.234 14.1927 119.609 14.987 118.359 15.2734C117.708 15.4036 116.784 15.4557 115.586 15.4297L111.445 15.3125C111.576 12.3177 112.552 10.3646 114.375 9.45312C114.974 9.14062 115.612 8.98438 116.289 8.98438ZM123.086 21.25L122.109 20.8984C121.198 22.8776 119.727 23.9974 117.695 24.2578C117.435 24.2839 117.188 24.2969 116.953 24.2969C114.219 24.2969 112.5 22.6693 111.797 19.4141C111.589 18.5026 111.471 17.5 111.445 16.4062L116.133 16.4844C119.31 16.5365 121.354 16.237 122.266 15.5859C122.969 15.0651 123.32 14.3229 123.32 13.3594C123.32 11.5885 122.422 10.1823 120.625 9.14062C119.349 8.38542 117.878 8.00781 116.211 8.00781C112.956 8.00781 110.625 9.36198 109.219 12.0703C108.49 13.4766 108.125 15.0651 108.125 16.8359C108.125 20.0651 109.284 22.4609 111.602 24.0234C112.982 24.9349 114.557 25.3906 116.328 25.3906C119.141 25.3906 121.211 24.375 122.539 22.3438C122.747 21.9792 122.93 21.6146 123.086 21.25ZM139.961 25.3906C141.966 25.3906 143.073 24.1797 143.281 21.7578C143.307 21.6016 143.32 21.4583 143.32 21.3281L142.305 21.2891C142.122 23.1901 141.615 24.1536 140.781 24.1797C140.104 24.1276 139.753 23.4505 139.727 22.1484V13.9062C139.727 10.1823 137.865 8.21615 134.141 8.00781C133.906 8.00781 133.672 8.00781 133.438 8.00781C130.521 8.00781 128.568 8.6849 127.578 10.0391C127.266 10.4818 127.109 10.9245 127.109 11.3672C127.109 12.1745 127.487 12.6432 128.242 12.7734C128.372 12.7995 128.503 12.8125 128.633 12.8125C129.232 12.8125 129.674 12.4349 129.961 11.6797C130.326 10.7161 130.573 10.1432 130.703 9.96094C131.198 9.3099 131.966 8.98438 133.008 8.98438C135.456 9.14062 136.719 10.4818 136.797 13.0078V15.4688C130.677 15.4688 127.174 16.7448 126.289 19.2969C126.133 19.7917 126.055 20.3255 126.055 20.8984C126.055 22.8776 126.927 24.2318 128.672 24.9609C129.375 25.2474 130.117 25.3906 130.898 25.3906C132.799 25.3906 134.401 24.7396 135.703 23.4375C136.172 22.9427 136.523 22.4219 136.758 21.875C137.07 24.1927 138.138 25.3646 139.961 25.3906ZM132.188 23.8281C130.599 23.8281 129.622 23.0339 129.258 21.4453C129.18 21.0807 129.141 20.6771 129.141 20.2344C129.141 18.4896 130.143 17.3828 132.148 16.9141C133.216 16.6797 134.766 16.5495 136.797 16.5234V19.6484C136.406 21.4453 135.456 22.7083 133.945 23.4375C133.346 23.6979 132.76 23.8281 132.188 23.8281ZM163.633 24.0234H161.68V8.39844H155.547V9.375H158.75V17.8125C158.75 20.1562 157.93 21.875 156.289 22.9688C155.56 23.4635 154.805 23.7109 154.023 23.7109C151.888 23.7109 150.651 22.6172 150.312 20.4297C150.26 20.0651 150.234 19.6745 150.234 19.2578V8.39844H144.297V9.375H147.305V18.6719C147.331 23.125 149.193 25.3646 152.891 25.3906C154.844 25.3906 156.445 24.5964 157.695 23.0078C158.164 22.4089 158.542 21.7448 158.828 21.0156L159.102 25H164.609C164.609 24.4271 164.414 24.1146 164.023 24.0625C163.919 24.0365 163.789 24.0234 163.633 24.0234ZM166.445 9.375H169.18V20.3906C169.362 23.6458 170.859 25.3255 173.672 25.4297C176.068 25.4297 177.565 23.9583 178.164 21.0156C178.164 20.9896 178.164 20.9635 178.164 20.9375L177.109 20.7422C176.458 22.9036 175.508 24.0755 174.258 24.2578C172.852 24.2057 172.135 23.2031 172.109 21.25V9.375H178.164V8.39844H172.109V3.86719L169.18 4.6875V8.39844H166.445V9.375ZM182.383 31.2109C181.966 31.2109 181.654 30.8984 181.445 30.2734C181.159 29.4922 180.885 29.0104 180.625 28.8281C180.391 28.6719 180.117 28.5938 179.805 28.5938C178.971 28.5938 178.49 28.9583 178.359 29.6875C178.333 29.7917 178.32 29.8828 178.32 29.9609C178.32 30.9505 178.893 31.6667 180.039 32.1094C180.56 32.3177 181.107 32.4219 181.68 32.4219C183.737 32.4219 185.521 31.1589 187.031 28.6328C187.656 27.6172 188.255 26.4062 188.828 25L194.609 10.7422C194.87 10.013 195.156 9.59635 195.469 9.49219C195.651 9.4401 195.859 9.41406 196.094 9.41406C196.615 9.41406 196.914 9.27083 196.992 8.98438C197.044 8.82812 197.07 8.63281 197.07 8.39844H191.133V9.41406H193.984L188.984 21.9141L183.633 9.41406H186.25V8.39844H178.633V9.41406H180.547L187.578 25C186.12 28.4375 184.753 30.4297 183.477 30.9766C183.112 31.1328 182.747 31.2109 182.383 31.2109Z" fill="black"/>
</svg>
