<svg width="286" height="41" viewBox="0 0 286 41" fill="none" xmlns="http://www.w3.org/2000/svg">
<path d="M185.089 14.1428C189.18 13.2308 192.928 10.9254 195.441 7.55476C195.653 7.26942 195.176 6.89876 194.947 7.17209C192.332 10.2681 188.879 12.5748 184.931 13.5668C184.557 13.6614 184.716 14.2254 185.089 14.1428Z" fill="#231F20"/>
<path d="M195.291 6.95644C195.06 6.7071 194.931 6.38977 194.826 6.07244C194.732 5.7911 194.53 5.36977 194.647 5.0711C194.678 4.9911 194.756 4.9031 194.846 4.88977C194.886 4.88444 194.904 4.9191 194.939 4.97644C195.091 5.2231 195.139 5.50044 195.356 5.71377C195.466 5.82044 195.658 5.85777 195.791 5.76977C195.992 5.6391 196.33 5.37644 196.59 5.4711C196.65 5.4911 196.722 5.5511 196.746 5.60977C196.776 5.68844 196.7 5.72977 196.647 5.82177C196.562 5.96977 196.543 6.15777 196.631 6.30977C196.734 6.48444 196.914 6.53777 197.103 6.5591C197.295 6.5831 197.519 6.60444 197.671 6.7071C197.68 6.71377 197.716 6.7311 197.706 6.77244C197.684 6.84577 197.603 6.88844 197.539 6.9151C197.308 7.00577 197.018 6.9871 196.775 6.96844C196.251 6.9271 195.723 6.8031 195.195 6.84177C194.967 6.8591 194.771 7.02577 194.771 7.26577C194.771 7.48444 194.966 7.70444 195.195 7.68977C196.091 7.63377 197.08 8.04044 197.931 7.5951C198.418 7.34177 198.654 6.68444 198.256 6.2471C198.114 6.08844 197.912 5.99244 197.708 5.93777C197.6 5.9111 197.49 5.8951 197.38 5.88177C197.334 5.87644 197.287 5.87244 197.239 5.86844C197.208 5.86577 197.179 5.8631 197.147 5.86177C197.078 5.85244 197.087 5.86177 197.175 5.88977C197.204 5.94044 197.234 5.9911 197.263 6.04177C197.251 6.13644 197.264 6.14844 197.302 6.07777C197.319 6.05777 197.334 6.03777 197.347 6.01377C197.378 5.96444 197.402 5.90577 197.419 5.84977C197.455 5.72844 197.455 5.59244 197.424 5.4711C197.366 5.23644 197.207 5.0351 197.006 4.90444C196.49 4.5711 195.888 4.86177 195.43 5.1511C195.574 5.16844 195.719 5.18844 195.864 5.2071C195.759 5.0991 195.714 4.93377 195.656 4.7951C195.572 4.59644 195.468 4.41644 195.29 4.2911C194.87 3.99777 194.332 4.21777 194.078 4.6191C193.782 5.0871 193.968 5.65644 194.142 6.1311C194.31 6.59244 194.502 7.04177 194.852 7.39377C195.136 7.67644 195.56 7.24844 195.291 6.95644Z" fill="#231F20"/>
<path d="M195.691 4.80288C195.6 3.92822 195.891 3.05888 196.494 2.41622C197.024 1.85088 197.848 1.27622 198.65 1.23888C199.07 1.21888 199.414 1.49222 199.719 1.74822C200.011 1.99355 200.33 2.26555 200.492 2.61888C200.814 3.32688 200.216 4.22022 199.719 4.69355C199.078 5.30155 198.295 5.51755 197.435 5.57488C197.027 5.60422 196.88 6.24288 197.332 6.33222C198.338 6.53222 199.394 6.11622 200.176 5.49622C200.99 4.84955 201.683 3.73222 201.475 2.65888C201.376 2.14422 201.035 1.70688 200.66 1.35888C200.262 0.986884 199.804 0.608217 199.282 0.430884C198.248 0.0815505 196.975 0.786884 196.228 1.47088C195.294 2.32688 194.852 3.64422 195.072 4.88555C195.134 5.23222 195.727 5.15755 195.691 4.80288Z" fill="#231F20"/>
<path d="M199.885 0.922754C199.178 1.07875 198.478 1.45075 197.996 1.99742C197.866 2.14409 198.032 2.38675 198.214 2.27875C198.506 2.10542 198.8 1.92809 199.101 1.77209C199.245 1.69742 199.386 1.63075 199.526 1.57609C199.692 1.51075 199.846 1.43609 200.009 1.37342C200.128 1.32809 200.208 1.21609 200.172 1.08542C200.137 0.958754 200.009 0.894754 199.885 0.922754Z" fill="#231F20"/>
<path d="M199.533 1.75728C199.345 1.93194 199.171 2.12128 199.014 2.32528C198.93 2.43328 198.825 2.54794 198.769 2.67328C198.711 2.80261 198.661 2.93461 198.615 3.06794C198.589 3.14394 198.631 3.24528 198.702 3.28394C198.771 3.31994 198.878 3.31994 198.933 3.25328C199.007 3.15994 199.087 3.06928 199.169 2.98261C199.222 2.92528 199.262 2.86128 199.307 2.79728L199.367 2.71594C199.375 2.70394 199.383 2.69328 199.393 2.68128C199.422 2.64261 199.375 2.70261 199.395 2.67728C199.55 2.48128 199.718 2.29594 199.901 2.12528C200.002 2.03194 200.003 1.84928 199.901 1.75728C199.794 1.65861 199.639 1.65728 199.533 1.75728Z" fill="#231F20"/>
<path d="M199.936 2.19485C199.928 2.51618 199.863 2.82418 199.735 3.13751C199.727 3.15618 199.727 3.15751 199.734 3.13885C199.726 3.15885 199.716 3.17751 199.708 3.19751C199.692 3.23085 199.679 3.26551 199.664 3.29885C199.651 3.33351 199.648 3.33885 199.659 3.31618C199.626 3.39485 199.587 3.47218 199.547 3.54818C199.471 3.68685 199.375 3.83351 199.287 3.94285C199.194 4.05618 199.175 4.21618 199.287 4.32685C199.387 4.42818 199.57 4.43485 199.67 4.32685C199.939 4.04018 200.174 3.70151 200.3 3.32685C200.422 2.96418 200.475 2.57618 200.458 2.19485C200.442 1.86151 199.946 1.85885 199.936 2.19485Z" fill="#231F20"/>
<path d="M219.038 18.4747C223.127 17.5614 226.877 15.2574 229.39 11.8854C229.602 11.6014 229.125 11.2307 228.895 11.5027C226.281 14.6001 222.827 16.9067 218.879 17.8987C218.506 17.9934 218.663 18.5574 219.038 18.4747Z" fill="#231F20"/>
<path d="M229.239 11.2872C229.008 11.0379 228.88 10.7219 228.774 10.4032C228.68 10.1219 228.479 9.7019 228.595 9.4019C228.627 9.3219 228.704 9.23524 228.794 9.2219C228.835 9.21524 228.854 9.25124 228.887 9.30724C229.039 9.55524 229.088 9.83257 229.304 10.0446C229.414 10.1526 229.606 10.1886 229.739 10.1019C229.94 9.97124 230.278 9.70724 230.539 9.8019C230.598 9.82324 230.67 9.8819 230.694 9.9419C230.724 10.0206 230.648 10.0619 230.595 10.1539C230.511 10.3006 230.491 10.4899 230.579 10.6419C230.683 10.8166 230.863 10.8686 231.051 10.8899C231.243 10.9139 231.468 10.9366 231.62 11.0392C231.628 11.0459 231.664 11.0619 231.654 11.1032C231.634 11.1779 231.552 11.2206 231.487 11.2472C231.256 11.3379 230.967 11.3179 230.723 11.2992C230.2 11.2579 229.671 11.1352 229.143 11.1739C228.915 11.1912 228.72 11.3566 228.72 11.5966C228.72 11.8152 228.914 12.0352 229.143 12.0206C230.039 11.9659 231.03 12.3712 231.88 11.9272C232.366 11.6726 232.602 11.0152 232.206 10.5779C232.062 10.4206 231.86 10.3232 231.656 10.2699C231.55 10.2419 231.439 10.2272 231.328 10.2139C231.282 10.2072 231.235 10.2032 231.187 10.1992C231.156 10.1966 231.127 10.1952 231.096 10.1926C231.026 10.1832 231.035 10.1939 231.123 10.2219C231.152 10.2726 231.183 10.3232 231.211 10.3739C231.199 10.4672 231.212 10.4792 231.25 10.4099C231.267 10.3886 231.283 10.3686 231.295 10.3459C231.326 10.2952 231.351 10.2379 231.367 10.1806C231.404 10.0606 231.404 9.92457 231.374 9.8019C231.314 9.56857 231.155 9.36724 230.954 9.23657C230.439 8.9019 229.836 9.19257 229.378 9.4819C229.522 9.50057 229.667 9.51924 229.812 9.5379C229.708 9.43124 229.663 9.26457 229.604 9.12724C229.522 8.92857 229.418 8.74857 229.238 8.62324C228.819 8.3299 228.28 8.5499 228.027 8.95124C227.73 9.41924 227.918 9.98857 228.091 10.4632C228.258 10.9232 228.45 11.3726 228.802 11.7246C229.084 12.0086 229.51 11.5792 229.239 11.2872Z" fill="#231F20"/>
<path d="M229.639 9.13485C229.548 8.25885 229.839 7.39085 230.443 6.74819C230.972 6.18152 231.796 5.60819 232.597 5.56952C233.017 5.55085 233.361 5.82419 233.667 6.07885C233.96 6.32552 234.279 6.59619 234.44 6.95085C234.761 7.65752 234.164 8.55219 233.667 9.02552C233.027 9.63352 232.243 9.84819 231.384 9.90685C230.976 9.93485 230.829 10.5749 231.28 10.6642C232.285 10.8642 233.343 10.4482 234.124 9.82819C234.937 9.18019 235.631 8.06419 235.423 6.99085C235.324 6.47619 234.983 6.03885 234.608 5.68952C234.209 5.31885 233.753 4.93885 233.231 4.76285C232.196 4.41352 230.924 5.11752 230.177 5.80152C229.241 6.65885 228.801 7.97485 229.02 9.21752C229.081 9.56285 229.675 9.48819 229.639 9.13485Z" fill="#231F20"/>
<path d="M233.833 5.25337C233.127 5.40937 232.427 5.78137 231.944 6.32804C231.815 6.47604 231.979 6.71737 232.163 6.60937C232.455 6.43737 232.748 6.26004 233.049 6.10271C233.193 6.02804 233.335 5.96271 233.475 5.90804C233.64 5.84271 233.795 5.76671 233.957 5.70404C234.075 5.66004 234.156 5.54804 234.12 5.41737C234.085 5.28937 233.957 5.22537 233.833 5.25337Z" fill="#231F20"/>
<path d="M233.481 6.08807C233.293 6.26407 233.12 6.4534 232.962 6.6574C232.878 6.7654 232.773 6.88007 232.717 7.00407C232.66 7.13474 232.609 7.26674 232.562 7.39874C232.537 7.47607 232.58 7.5774 232.649 7.61474C232.72 7.65074 232.826 7.65207 232.88 7.58407C232.956 7.49207 233.036 7.4014 233.117 7.3134C233.17 7.2574 233.21 7.19207 233.256 7.1294C233.274 7.1014 233.294 7.0734 233.316 7.04674C233.324 7.03607 233.332 7.02407 233.34 7.0134C233.37 6.9734 233.324 7.03474 233.342 7.0094C233.498 6.8134 233.666 6.62807 233.849 6.45607C233.949 6.36407 233.952 6.1814 233.849 6.08807C233.742 5.99074 233.588 5.9894 233.481 6.08807Z" fill="#231F20"/>
<path d="M233.885 6.52686C233.876 6.84686 233.812 7.1562 233.684 7.4682C233.676 7.4882 233.676 7.48953 233.682 7.47086C233.674 7.49086 233.665 7.50953 233.657 7.52953C233.641 7.56286 233.628 7.59753 233.613 7.63086C233.6 7.66553 233.597 7.66953 233.608 7.6482C233.574 7.72553 233.536 7.8042 233.496 7.87886C233.418 8.01886 233.324 8.16553 233.234 8.27486C233.142 8.3882 233.124 8.54686 233.234 8.65886C233.336 8.7602 233.518 8.76553 233.618 8.65886C233.888 8.3722 234.122 8.0322 234.248 7.65753C234.37 7.2962 234.424 6.90686 234.406 6.52686C234.39 6.1922 233.894 6.18953 233.885 6.52686Z" fill="#231F20"/>
<path d="M196.014 15.0398C197.12 19.0758 199.596 22.7238 203.084 25.0678C203.428 25.2984 203.715 24.7638 203.402 24.5238C200.211 22.0838 197.759 18.7371 196.59 14.8811C196.479 14.5131 195.911 14.6678 196.014 15.0398Z" fill="#231F20"/>
<path d="M203.677 24.907C203.916 24.6644 204.22 24.5164 204.533 24.3937C204.81 24.287 205.26 24.0444 205.562 24.1724C205.629 24.2017 205.705 24.2644 205.724 24.335C205.738 24.3937 205.709 24.4137 205.664 24.4404C205.418 24.5924 205.141 24.667 204.942 24.8897C204.845 24.999 204.79 25.1924 204.886 25.3244C205.032 25.5244 205.298 25.835 205.237 26.1044C205.222 26.1684 205.16 26.2737 205.089 26.2897C205.012 26.3084 204.977 26.2444 204.9 26.2044C204.51 26.0044 204.202 26.2817 204.17 26.6697C204.154 26.8644 204.157 27.1124 204.044 27.2697C204.041 27.2737 204.006 27.3044 204.005 27.3044C203.905 27.2937 203.849 27.1777 203.82 27.0977C203.736 26.8644 203.74 26.5937 203.749 26.3497C203.77 25.8417 203.858 25.3244 203.797 24.8164C203.769 24.5897 203.621 24.3924 203.373 24.3924C203.164 24.3924 202.925 24.587 202.95 24.8164C203.046 25.7004 202.7 26.691 203.149 27.5204C203.412 28.0057 204.076 28.259 204.517 27.847C204.672 27.7044 204.765 27.5004 204.812 27.299C204.837 27.1884 204.85 27.0737 204.86 26.9604C204.865 26.903 204.868 26.8457 204.869 26.7884C204.87 26.7657 204.87 26.7417 204.872 26.7164C204.878 26.647 204.866 26.6537 204.832 26.739C204.781 26.7684 204.729 26.799 204.678 26.827C204.586 26.8097 204.576 26.819 204.648 26.855L204.692 26.8857C204.752 26.9204 204.817 26.9497 204.884 26.967C205.004 26.9964 205.13 26.9937 205.25 26.963C205.486 26.9004 205.696 26.7257 205.817 26.515C206.122 25.987 205.817 25.4057 205.506 24.963C205.488 25.107 205.469 25.2524 205.45 25.3977C205.561 25.2777 205.722 25.2257 205.87 25.1564C206.054 25.0697 206.226 24.955 206.341 24.7817C206.621 24.3577 206.389 23.8204 205.978 23.5817C205.494 23.3004 204.941 23.5084 204.47 23.7057C204.02 23.8937 203.574 24.1017 203.24 24.4697C202.973 24.7644 203.397 25.1937 203.677 24.907Z" fill="#231F20"/>
<path d="M205.926 25.1818C206.768 25.0525 207.659 25.3378 208.298 25.8938C208.88 26.4018 209.506 27.2045 209.563 28.0045C209.594 28.4338 209.303 28.8111 209.056 29.1338C208.823 29.4351 208.542 29.7845 208.175 29.9298C207.507 30.1938 206.636 29.6658 206.168 29.2165C205.534 28.6071 205.268 27.8458 205.17 26.9898C205.148 26.7978 205.04 26.6405 204.836 26.6111C204.666 26.5898 204.44 26.6991 204.412 26.8871C204.262 27.8991 204.704 28.9285 205.36 29.6845C206.026 30.4525 207.123 31.0805 208.168 30.8911C208.716 30.7925 209.171 30.4218 209.522 30.0058C209.872 29.5925 210.239 29.1205 210.392 28.5911C210.696 27.5338 209.936 26.2645 209.196 25.5525C208.292 24.6858 206.982 24.2951 205.759 24.5738C205.355 24.6658 205.535 25.2418 205.926 25.1818Z" fill="#231F20"/>
<path d="M209.938 29.2065C209.748 28.5078 209.348 27.8238 208.778 27.3665C208.709 27.3105 208.617 27.2918 208.542 27.3518C208.476 27.4052 208.446 27.5078 208.496 27.5838C208.686 27.8705 208.88 28.1585 209.05 28.4572C209.136 28.6052 209.214 28.7572 209.285 28.9132C209.357 29.0718 209.441 29.2265 209.512 29.3865C209.557 29.4905 209.708 29.5225 209.802 29.4812C209.909 29.4358 209.969 29.3212 209.938 29.2065Z" fill="#231F20"/>
<path d="M209.094 28.8928C208.899 28.7021 208.687 28.5301 208.464 28.3715C208.351 28.2928 208.235 28.2061 208.106 28.1541C207.986 28.1075 207.863 28.0675 207.739 28.0315C207.648 28.0048 207.551 28.0568 207.515 28.1421C207.476 28.2355 207.515 28.3221 207.594 28.3795C207.619 28.3981 207.644 28.4181 207.671 28.4368C207.699 28.4595 207.65 28.4208 207.678 28.4421C207.688 28.4515 207.699 28.4595 207.71 28.4688C207.756 28.5048 207.8 28.5421 207.846 28.5808C207.952 28.6701 208.079 28.7368 208.192 28.8155C208.243 28.8515 208.291 28.8875 208.34 28.9235C208.362 28.9395 208.356 28.9368 208.338 28.9221C208.35 28.9315 208.36 28.9395 208.371 28.9488C208.398 28.9701 208.422 28.9888 208.447 29.0101C208.543 29.0888 208.635 29.1741 208.726 29.2608C208.823 29.3568 208.998 29.3648 209.094 29.2608C209.188 29.1581 209.199 28.9941 209.094 28.8928" fill="#231F20"/>
<path d="M208.678 29.3081C208.337 29.3148 208.042 29.2681 207.714 29.1508C207.553 29.0921 207.42 29.0454 207.288 28.9801C207.132 28.9028 206.984 28.8121 206.844 28.7094C206.736 28.6294 206.568 28.6801 206.493 28.7801C206.418 28.8801 206.41 29.0468 206.514 29.1361C206.813 29.3908 207.16 29.6134 207.54 29.7228C207.908 29.8268 208.298 29.8641 208.678 29.8294C208.818 29.8161 208.94 29.7188 208.94 29.5681C208.94 29.4294 208.82 29.3041 208.678 29.3081Z" fill="#231F20"/>
<path d="M158.603 17.3498C161.882 19.9578 166.01 21.4645 170.22 21.3071C170.624 21.2911 170.627 20.6871 170.22 20.6765C166.166 20.5805 162.218 19.3285 158.964 16.8805C158.696 16.6791 158.338 17.1391 158.603 17.3498Z" fill="#231F20"/>
<path d="M170.629 20.8602C170.685 20.4802 170.864 20.1589 171.07 19.8389C171.222 19.6029 171.406 19.2336 171.692 19.1309C171.837 19.0789 171.997 19.1189 171.97 19.2642C171.946 19.3896 171.844 19.5109 171.789 19.6256C171.709 19.7882 171.662 19.9402 171.644 20.1202C171.626 20.2802 171.768 20.4216 171.908 20.4669C172.129 20.5389 172.449 20.6216 172.581 20.8362C172.629 20.9136 172.632 21.1042 172.582 21.1362C172.514 21.1802 172.356 21.1536 172.269 21.1802C172.093 21.2376 171.976 21.3882 171.961 21.5709C171.933 21.9002 172.244 22.1229 172.312 22.4322C172.357 22.6362 172.184 22.6056 172.049 22.5149C171.845 22.3749 171.702 22.1829 171.577 21.9976C171.269 21.5402 171.016 21.0376 170.636 20.6309C170.264 20.2309 169.672 20.8296 170.037 21.2296C170.276 21.4936 170.49 21.8869 170.713 22.2082C170.968 22.5762 171.257 22.9656 171.652 23.1962C172.081 23.4456 172.713 23.4096 172.968 22.9282C173.086 22.7056 173.084 22.4429 173.006 22.2096C172.965 22.0802 172.904 21.9549 172.834 21.8376C172.806 21.7896 172.649 21.6202 172.653 21.5709C172.636 21.6296 172.621 21.6869 172.605 21.7456L172.626 21.7109C172.585 21.7522 172.544 21.7922 172.502 21.8336C172.522 21.8189 172.701 21.8176 172.766 21.7989C172.888 21.7656 173.005 21.6869 173.089 21.5922C173.261 21.4002 173.337 21.1296 173.312 20.8762C173.248 20.2376 172.633 19.9576 172.098 19.7749C172.186 19.8896 172.274 20.0042 172.362 20.1202C172.382 19.9549 172.53 19.7922 172.6 19.6456C172.701 19.4282 172.75 19.1962 172.68 18.9602C172.546 18.5189 172.041 18.3322 171.62 18.4136C171.141 18.5069 170.844 18.9322 170.606 19.3202C170.325 19.7776 170.081 20.2376 170.021 20.7776C169.984 21.1202 170.577 21.2056 170.629 20.8602Z" fill="#231F20"/>
<path d="M172.59 19.7482C173.202 19.1389 174.045 18.8469 174.903 18.8949C175.355 18.9202 175.818 19.0309 176.233 19.2122C176.605 19.3749 177.049 19.6016 177.283 19.9442C177.515 20.2896 177.479 20.7709 177.466 21.1656C177.453 21.5376 177.422 21.9602 177.199 22.2736C176.789 22.8482 175.787 22.9309 175.15 22.8349C174.267 22.7042 173.621 22.2202 173.031 21.5829C172.725 21.2509 172.229 21.6722 172.426 22.0509C172.875 22.9096 173.869 23.4842 174.793 23.6882C175.765 23.9029 176.978 23.8002 177.729 23.0776C178.134 22.6882 178.294 22.1442 178.353 21.6016C178.411 21.0629 178.43 20.4429 178.258 19.9242C177.895 18.8322 176.545 18.2509 175.487 18.0989C174.265 17.9229 172.961 18.3656 172.145 19.3029C171.881 19.6056 172.299 20.0376 172.59 19.7482Z" fill="#231F20"/>
<path d="M178.248 20.6245C178.102 20.5085 177.953 20.3831 177.788 20.2951C177.614 20.2045 177.437 20.1231 177.254 20.0485C176.909 19.9071 176.553 19.8191 176.178 19.8031C176.09 19.7991 176.012 19.8738 176.002 19.9578C175.992 20.0511 176.045 20.1218 176.13 20.1538C176.441 20.2698 176.756 20.3818 177.057 20.5178C177.21 20.5858 177.36 20.6618 177.506 20.7445C177.657 20.8298 177.814 20.9031 177.965 20.9898C178.065 21.0485 178.197 21.0231 178.266 20.9298C178.329 20.8458 178.34 20.6978 178.248 20.6245Z" fill="#231F20"/>
<path d="M177.389 20.8575C177.119 20.8189 176.847 20.7962 176.572 20.8002C176.437 20.8029 176.291 20.8002 176.157 20.8282C176.028 20.8549 175.9 20.9042 175.776 20.9482C175.687 20.9815 175.625 21.0589 175.64 21.1575C175.653 21.2495 175.729 21.3215 175.827 21.3229C175.951 21.3229 176.073 21.3309 176.197 21.3362C176.316 21.3429 176.439 21.3242 176.557 21.3229C176.679 21.3202 176.799 21.3229 176.919 21.3295C176.976 21.3309 177.033 21.3362 177.091 21.3415C177.12 21.3442 177.148 21.3469 177.177 21.3509C177.196 21.3522 177.216 21.3549 177.235 21.3575C177.267 21.3615 177.273 21.3629 177.251 21.3602C177.385 21.3789 177.537 21.3282 177.572 21.1775C177.6 21.0535 177.533 20.8775 177.389 20.8575Z" fill="#231F20"/>
<path d="M177.292 21.4162C177.019 21.6242 176.735 21.7722 176.424 21.8642C176.086 21.9642 175.803 22.0295 175.463 22.0282C175.316 22.0269 175.191 22.1535 175.191 22.2989C175.191 22.4549 175.316 22.5589 175.463 22.5709C175.839 22.6002 176.244 22.5695 176.599 22.4349C176.971 22.2909 177.308 22.0909 177.608 21.8269C177.704 21.7402 177.704 21.5789 177.628 21.4842C177.555 21.3922 177.396 21.3362 177.292 21.4162Z" fill="#231F20"/>
<path d="M226.801 19.8328C227.389 21.7142 228.102 23.5822 229.146 25.2595C230.157 26.8835 231.412 28.3195 232.854 29.5715C233.157 29.8342 233.59 29.4142 233.3 29.1262C231.992 27.8315 230.754 26.4568 229.782 24.8875C228.769 23.2502 228.002 21.4928 227.377 19.6755C227.253 19.3142 226.686 19.4635 226.801 19.8328Z" fill="#231F20"/>
<path d="M233.522 29.4878C233.79 29.2758 234.133 29.1824 234.458 29.1011C234.737 29.0318 235.18 28.8638 235.453 29.0211C235.526 29.0638 235.589 29.1451 235.598 29.2144C235.605 29.2624 235.58 29.2744 235.493 29.3158C235.25 29.4318 234.948 29.4838 234.717 29.6851C234.596 29.7918 234.588 29.9878 234.661 30.1211C234.773 30.3278 235.002 30.6904 234.877 30.9238C234.841 30.9944 234.778 31.0424 234.717 31.0624C234.676 31.0758 234.696 31.0838 234.66 31.0624C234.674 31.0704 234.582 30.9891 234.576 30.9824C234.226 30.7064 233.842 30.9118 233.762 31.3198C233.718 31.5398 233.65 31.7518 233.553 31.9078C233.521 31.9398 233.514 31.9451 233.534 31.9224C233.564 31.9144 233.557 31.9171 233.512 31.9304C233.56 31.9518 233.472 31.9091 233.482 31.9171C233.404 31.8571 233.37 31.7731 233.353 31.6718C233.31 31.4304 233.344 31.1678 233.376 30.9864C233.466 30.4571 233.625 29.9251 233.626 29.3838C233.629 28.8384 232.789 28.8398 232.78 29.3838C232.776 29.5958 232.758 29.6718 232.718 29.8918C232.678 30.1171 232.636 30.3411 232.602 30.5664C232.53 31.0371 232.458 31.5664 232.636 32.0224C232.833 32.5304 233.418 32.8811 233.926 32.5544C234.129 32.4238 234.25 32.2104 234.329 31.9891C234.365 31.8918 234.389 31.7931 234.409 31.6904C234.418 31.6451 234.426 31.5984 234.433 31.5518C234.437 31.5211 234.441 31.4918 234.445 31.4611C234.46 31.4011 234.457 31.3958 234.44 31.4464C234.389 31.4758 234.338 31.5064 234.286 31.5358L234.333 31.5238H234.15C234.22 31.5371 234.316 31.6531 234.394 31.6904C234.514 31.7451 234.637 31.7651 234.768 31.7504C235.004 31.7264 235.224 31.6038 235.376 31.4224C235.8 30.9158 235.55 30.2718 235.281 29.7584C235.262 29.9038 235.244 30.0478 235.225 30.1931C235.318 30.1144 235.496 30.0851 235.633 30.0384C235.828 29.9731 236.014 29.8864 236.149 29.7264C236.494 29.3131 236.306 28.7438 235.897 28.4571C235.452 28.1451 234.876 28.2944 234.396 28.4278C233.921 28.5598 233.465 28.7251 233.085 29.0491C232.958 29.1584 232.973 29.3758 233.085 29.4878C233.214 29.6171 233.39 29.5918 233.522 29.4878Z" fill="#231F20"/>
<path d="M235.645 30.0724C236.535 30.0498 237.371 30.4338 237.967 31.0924C238.478 31.6564 238.986 32.5444 238.939 33.3351C238.915 33.7524 238.599 34.0698 238.322 34.3511C238.049 34.6311 237.741 34.9364 237.354 35.0484C236.627 35.2604 235.793 34.5884 235.374 34.0498C234.838 33.3591 234.705 32.5711 234.714 31.7191C234.718 31.2818 234.075 31.1991 233.957 31.6164C233.694 32.5458 234.005 33.6378 234.531 34.4231C235.094 35.2631 236.101 36.0884 237.174 36.0191C237.758 35.9804 238.253 35.6698 238.674 35.2844C239.051 34.9418 239.45 34.5378 239.662 34.0671C240.123 33.0498 239.567 31.7471 238.935 30.9191C238.173 29.9204 236.902 29.3204 235.645 29.4418C235.249 29.4804 235.231 30.0818 235.645 30.0724Z" fill="#231F20"/>
<path d="M239.156 34.5386C239.054 33.8213 238.734 33.1026 238.228 32.5786C238.08 32.4266 237.86 32.6199 237.946 32.7959C238.092 33.0933 238.242 33.3919 238.37 33.6946C238.434 33.8466 238.489 34.0039 238.538 34.1613C238.59 34.3293 238.656 34.4933 238.705 34.6626C238.741 34.7839 238.869 34.8599 238.992 34.8266C239.128 34.7879 239.173 34.6639 239.156 34.5386Z" fill="#231F20"/>
<path d="M238.342 34.1245C238.183 33.9272 238.01 33.7418 237.823 33.5698C237.722 33.4792 237.615 33.3725 237.497 33.3032C237.387 33.2392 237.267 33.1872 237.151 33.1365C237.063 33.0978 236.969 33.1045 236.906 33.1858C236.85 33.2592 236.851 33.3698 236.921 33.4338C237.01 33.5205 237.097 33.6072 237.179 33.7005C237.219 33.7445 237.271 33.7792 237.317 33.8192C237.367 33.8605 237.415 33.9018 237.462 33.9458C237.647 34.1138 237.817 34.2978 237.973 34.4925C238.011 34.5418 238.098 34.5698 238.158 34.5698C238.222 34.5698 238.298 34.5405 238.342 34.4925C238.446 34.3792 238.433 34.2392 238.342 34.1245" fill="#231F20"/>
<path d="M237.866 34.5073C237.799 34.4993 237.741 34.4913 237.653 34.474C237.574 34.458 237.497 34.438 237.419 34.4153C237.337 34.39 237.255 34.362 237.175 34.3313C237.166 34.326 237.133 34.3126 237.162 34.326C237.143 34.318 237.125 34.31 237.107 34.302C237.066 34.2833 237.025 34.262 236.985 34.2433C236.838 34.166 236.689 34.0913 236.55 34.0006C236.402 33.9046 236.313 33.8326 236.181 33.7073C236.075 33.606 235.902 33.602 235.797 33.7073C235.689 33.8153 235.698 33.982 235.797 34.0913C236.058 34.3766 236.375 34.63 236.733 34.7806C237.093 34.9313 237.475 35.0153 237.866 35.0286C238.007 35.034 238.127 34.906 238.127 34.7673C238.127 34.614 238.006 34.522 237.866 34.5073Z" fill="#231F20"/>
<path d="M164.533 15.8523C168.035 13.679 170.381 10.303 173.264 7.44565C174.785 5.93765 176.492 4.64031 178.357 3.58698C180.277 2.50431 182.337 1.77898 184.423 1.08698C184.833 0.950981 184.661 0.380314 184.245 0.448314C180.153 1.12165 176.239 3.46565 173.243 6.27098C170.133 9.18432 167.795 12.927 164.255 15.375C163.965 15.575 164.227 16.0443 164.533 15.8523Z" fill="#231F20"/>
<path d="M164.249 15.8901C168.537 15.0221 172.865 13.6661 176.545 11.2381C180.511 8.61942 183.097 4.83542 185.074 0.575425C185.277 0.139425 184.663 -0.243242 184.417 0.191425C183.221 2.30342 182.166 4.49542 180.63 6.39409C179.29 8.05009 177.659 9.44209 175.862 10.5821C172.259 12.8634 168.167 14.1661 164.063 15.2194C163.627 15.3314 163.814 15.9768 164.249 15.8901Z" fill="#231F20"/>
<path d="M164.414 15.3367C168.014 13.4847 170.893 10.6127 173.866 7.9207C175.396 6.53803 176.954 5.17803 178.654 4.00603C179.465 3.44736 180.308 2.93136 181.186 2.4847C182.101 2.01936 183.101 1.7327 184.009 1.26603C184.178 1.17936 184.109 0.867365 183.908 0.891365C182.082 1.11536 180.23 2.3087 178.741 3.3167C177.113 4.4167 175.62 5.69803 174.181 7.03136C171.046 9.93536 168.073 13.038 164.272 15.0927C164.112 15.1794 164.253 15.4194 164.414 15.3367Z" fill="#231F20"/>
<path d="M165.728 14.5061C169.347 12.9208 172.764 10.9888 175.949 8.64879C177.436 7.55679 178.875 6.39412 180.252 5.16612C180.985 4.51145 181.703 3.83679 182.4 3.14345C183.044 2.50212 183.893 1.81812 184.291 0.992786C184.371 0.827453 184.201 0.614119 184.024 0.724786C183.311 1.17412 182.779 1.93945 182.2 2.54479C181.52 3.25545 180.82 3.94745 180.103 4.62079C178.647 5.98479 177.116 7.26479 175.511 8.45279C172.431 10.7328 169.105 12.7248 165.629 14.3368C165.515 14.3901 165.615 14.5555 165.728 14.5061Z" fill="#231F20"/>
<path d="M199.361 15.3237C203.042 13.5677 205.729 10.5077 208.867 7.997C210.53 6.66633 212.369 5.55566 214.325 4.71033C216.391 3.81833 218.57 3.31433 220.765 2.84766C221.127 2.77033 221.05 2.177 220.675 2.19566C216.446 2.41833 212.213 4.35833 208.882 6.90366C205.542 9.45433 202.817 12.8317 199.082 14.8463C198.765 15.017 199.043 15.4757 199.361 15.3237Z" fill="#231F20"/>
<path d="M198.992 15.3472C203.366 14.9552 207.806 14.0912 211.753 12.0899C216.01 9.9312 219.013 6.41386 221.457 2.38186C221.714 1.9552 221.081 1.60986 220.8 1.99786C219.376 3.96986 218.08 6.0232 216.338 7.7432C214.833 9.23253 213.068 10.4205 211.169 11.3512C207.334 13.2299 203.1 14.0699 198.9 14.6645C198.516 14.7192 198.602 15.3819 198.992 15.3472Z" fill="#231F20"/>
<path d="M199.252 14.8184C202.989 13.3931 206.128 10.9038 209.34 8.58644C210.951 7.42511 212.581 6.28378 214.317 5.31578C215.263 4.78911 216.239 4.31178 217.251 3.92644C218.239 3.55178 219.288 3.36644 220.271 2.99711C220.472 2.92111 220.457 2.59978 220.217 2.60244C218.431 2.62644 216.507 3.57711 214.947 4.38644C213.093 5.34644 211.375 6.53311 209.701 7.77844C206.347 10.2758 203.095 12.9584 199.177 14.5464C199.012 14.6144 199.081 14.8851 199.252 14.8184Z" fill="#231F20"/>
<path d="M200.656 14.1362C204.394 12.9682 207.976 11.4442 211.374 9.49621C213.06 8.52954 214.698 7.47754 216.277 6.34554C217.028 5.80821 217.766 5.25087 218.489 4.67621C219.21 4.10287 220.126 3.51621 220.621 2.72821C220.732 2.55221 220.518 2.38021 220.353 2.46021C219.588 2.83354 218.962 3.55487 218.312 4.10021C217.529 4.75487 216.728 5.38687 215.908 5.99621C214.384 7.12687 212.801 8.17354 211.162 9.13221C207.824 11.0842 204.269 12.7175 200.604 13.9469C200.485 13.9869 200.534 14.1735 200.656 14.1362Z" fill="#231F20"/>
<path d="M227.075 20.2247C230.943 19.1314 234.078 16.638 237.535 14.7034C239.436 13.6407 241.456 12.8287 243.572 12.3087C245.774 11.766 248.014 11.634 250.271 11.542C250.707 11.5247 250.686 10.9274 250.271 10.8794C246.056 10.3847 241.55 11.6127 237.832 13.5634C234.144 15.4994 230.916 18.3487 226.928 19.6914C226.594 19.8047 226.73 20.322 227.075 20.2247Z" fill="#231F20"/>
<path d="M226.79 20.1832C231.218 20.5418 235.827 20.4272 240.091 19.0525C244.541 17.6192 248.014 14.7112 251.042 11.2232C251.361 10.8578 250.859 10.3392 250.506 10.6858C248.841 12.3165 247.285 14.0525 245.387 15.4272C243.631 16.6965 241.658 17.6218 239.586 18.2458C235.443 19.4912 231.083 19.6125 226.79 19.4885C226.338 19.4752 226.35 20.1485 226.79 20.1832Z" fill="#231F20"/>
<path d="M227.101 19.6974C230.977 18.9321 234.452 17.0387 237.968 15.3174C239.865 14.3907 241.776 13.4801 243.778 12.7974C244.733 12.4721 245.706 12.1987 246.697 12.0027C247.733 11.8001 248.793 11.7894 249.825 11.5987C250.014 11.5627 250.021 11.2401 249.825 11.2121C247.962 10.9347 245.824 11.5721 244.072 12.1507C242.165 12.7801 240.341 13.6281 238.553 14.5361C234.817 16.4321 231.16 18.5201 227.025 19.4254C226.848 19.4641 226.924 19.7321 227.101 19.6974Z" fill="#231F20"/>
<path d="M228.567 19.2652C232.448 18.7465 236.233 17.8545 239.912 16.5092C241.687 15.8585 243.433 15.1225 245.137 14.3038C246.025 13.8772 246.901 13.4265 247.765 12.9532C248.569 12.5118 249.547 12.0958 250.172 11.4105C250.299 11.2732 250.177 11.0252 249.981 11.0838C249.133 11.3398 248.373 11.9545 247.611 12.3972C246.801 12.8638 245.98 13.3118 245.148 13.7372C243.367 14.6492 241.537 15.4572 239.663 16.1545C236.072 17.4918 232.327 18.4865 228.54 19.0732C228.432 19.0905 228.457 19.2812 228.567 19.2652Z" fill="#231F20"/>
<path d="M179.202 14.0165C182.186 16.7352 184.37 20.1792 187.077 23.1512C188.361 24.5605 189.783 25.8658 191.421 26.8552C193.386 28.0445 195.555 28.6925 197.817 29.0245C198.254 29.0885 198.458 28.4418 198.005 28.3432C195.795 27.8618 193.569 27.1845 191.629 25.9978C189.983 24.9925 188.573 23.6565 187.282 22.2338C184.691 19.3778 182.537 16.1472 179.494 13.7245C179.291 13.5632 179.002 13.8338 179.202 14.0165Z" fill="#231F20"/>
<path d="M179.091 14.2521C183.071 15.2427 186.808 17.0534 190.009 19.6214C193.197 22.1801 195.636 25.3761 197.608 28.9334C197.768 29.2227 198.164 28.9681 198.039 28.6814C194.769 21.1467 187.183 15.4254 179.256 13.6561C178.868 13.5681 178.703 14.1561 179.091 14.2521Z" fill="#231F20"/>
<path d="M209.711 16.8407C211.556 18.0553 212.828 19.8527 214.119 21.6047C215.374 23.3073 216.722 24.93 218.307 26.338C219.872 27.7273 221.619 28.8873 223.56 29.6807C225.418 30.4393 227.619 31.046 229.623 30.5887C229.879 30.53 229.896 30.1007 229.623 30.054C227.476 29.69 225.412 29.49 223.4 28.5793C221.431 27.6873 219.644 26.4327 218.066 24.9607C216.555 23.55 215.284 21.9487 214.01 20.3287C212.838 18.838 211.598 17.406 209.968 16.4007C209.687 16.2273 209.438 16.662 209.711 16.8407Z" fill="#231F20"/>
<path d="M209.494 16.8329C213.604 17.8075 217.623 19.1755 221.183 21.4955C222.798 22.5475 224.28 23.8022 225.546 25.2582C226.963 26.8929 227.943 28.7862 229.156 30.5609C229.352 30.8489 229.748 30.6022 229.615 30.2915C227.964 26.4475 225.314 23.2382 221.839 20.9155C218.191 18.4769 213.899 17.1729 209.638 16.3075C209.299 16.2409 209.151 16.7502 209.494 16.8329Z" fill="#231F20"/>
<path d="M236.461 22.2925C238.284 23.4991 239.374 25.7631 240.546 27.5458C241.673 29.2631 242.818 30.9845 244.217 32.4925C245.577 33.9618 247.201 35.1698 249.018 36.0111C250.71 36.7925 252.866 37.6018 254.748 37.2338C255.102 37.1645 255.044 36.6738 254.748 36.5738C253.786 36.2511 252.76 36.1645 251.778 35.9031C250.79 35.6391 249.83 35.2725 248.92 34.8058C247.078 33.8605 245.51 32.5298 244.166 30.9658C242.841 29.4258 241.76 27.7058 240.586 26.0511C239.482 24.4951 238.398 22.8378 236.713 21.8618C236.433 21.6991 236.194 22.1165 236.461 22.2925Z" fill="#231F20"/>
<path d="M236.496 22.2157C240.596 23.6784 244.712 25.0264 247.918 28.1037C250.624 30.6997 252.878 33.9797 254.794 37.1917C254.972 37.4917 255.448 37.2144 255.263 36.9171C253.143 33.5371 251.262 30.1037 248.3 27.3531C245.052 24.3371 240.843 22.8637 236.62 21.7664C236.327 21.6891 236.216 22.1171 236.496 22.2157Z" fill="#231F20"/>
<path d="M257.54 27.0828C257.536 26.8562 257.776 26.6028 257.919 26.4415C258.079 26.2575 258.255 26.0895 258.431 25.9215C258.791 25.5775 259.143 25.1775 259.367 24.7282C259.825 23.8068 259.773 22.6215 259.039 21.8602C258.837 21.6522 258.56 21.9162 258.664 22.1495C259.041 23.0055 259.032 23.9775 258.429 24.7242C258.139 25.0842 257.799 25.4002 257.511 25.7642C257.231 26.1148 256.836 26.6055 256.888 27.0828C256.933 27.4895 257.549 27.5108 257.54 27.0828Z" fill="#231F20"/>
<path d="M258.711 22.1193C259.36 22.4819 259.863 23.1686 259.939 23.9206C259.976 24.2913 259.918 24.6726 259.772 25.0166C259.695 25.2006 259.591 25.3779 259.47 25.5353C259.347 25.6926 259.168 25.8326 259.139 26.0379C259.116 26.1873 259.198 26.3433 259.368 26.3406C259.83 26.3339 260.154 25.7019 260.312 25.3326C260.507 24.8793 260.596 24.3793 260.542 23.8873C260.436 22.9286 259.854 22.0766 258.979 21.6593C258.675 21.5153 258.407 21.9499 258.711 22.1193Z" fill="#231F20"/>
<path d="M259.662 26.2665C260.186 25.9918 260.825 26.0972 261.389 26.1118C261.662 26.1185 261.942 26.1212 262.214 26.1505C262.546 26.1878 262.829 26.3465 263.169 26.2892C263.329 26.2625 263.325 26.0452 263.212 25.9705C262.938 25.7918 262.63 25.6092 262.306 25.5425C261.978 25.4745 261.64 25.4265 261.308 25.3892C260.673 25.3158 259.902 25.3878 259.361 25.7505C259.042 25.9638 259.32 26.4465 259.662 26.2665Z" fill="#231F20"/>
<path d="M262.921 25.8758C262.31 26.1732 261.693 26.4758 261.045 26.6812C260.727 26.7798 260.401 26.8518 260.071 26.8932C259.911 26.9118 259.75 26.9198 259.59 26.9158C259.409 26.9132 259.258 26.8918 259.114 27.0145C259.054 27.0678 259.038 27.1812 259.083 27.2452C259.275 27.5265 259.773 27.4598 260.071 27.4372C260.442 27.4065 260.801 27.3212 261.151 27.1998C261.851 26.9572 262.478 26.5798 263.107 26.1945C263.311 26.0692 263.133 25.7732 262.921 25.8758Z" fill="#231F20"/>
<path d="M259.213 27.5217C259.57 27.5083 259.814 27.811 260.03 28.055C260.27 28.3283 260.533 28.571 260.829 28.7817C261.405 29.191 262.12 29.4163 262.826 29.3803C263.108 29.3643 263.193 28.9377 262.896 28.867C262.22 28.707 261.558 28.455 260.986 28.0537C260.388 27.6337 259.978 26.895 259.144 27.0097C258.852 27.0497 258.924 27.5323 259.213 27.5217Z" fill="#231F20"/>
<path d="M262.613 28.95C261.775 29.0447 260.975 29.0927 260.142 28.9394C259.821 28.8794 259.529 28.77 259.247 28.6087C258.974 28.4527 258.773 28.186 258.479 28.0727C258.342 28.0194 258.221 28.1527 258.211 28.2767C258.186 28.6487 258.542 28.966 258.81 29.1754C259.117 29.4167 259.502 29.5714 259.878 29.6634C260.79 29.8874 261.789 29.5687 262.662 29.3127C262.853 29.2567 262.827 28.9247 262.613 28.95Z" fill="#231F20"/>
<path d="M257.093 27.0334C256.242 27.7334 256.524 28.8881 256.936 29.7428C257.161 30.2134 257.48 30.6481 257.63 31.1521C257.701 31.3894 257.75 31.6321 257.749 31.8814C257.746 32.1294 257.613 32.3788 257.685 32.6201C257.722 32.7481 257.865 32.8028 257.98 32.7401C258.358 32.5374 258.312 31.9054 258.257 31.5454C258.185 31.0694 257.996 30.6068 257.806 30.1681C257.605 29.7001 257.369 29.2348 257.27 28.7321C257.188 28.3081 257.18 27.7694 257.492 27.4334C257.744 27.1628 257.37 26.8054 257.093 27.0334Z" fill="#231F20"/>
<path d="M258.178 28.187C257.932 28.987 258.208 29.779 258.306 30.5764C258.397 31.3084 258.25 32.003 257.712 32.5257C257.445 32.783 257.789 33.2337 258.109 33.0417C258.826 32.6084 259.01 31.727 258.957 30.9524C258.928 30.507 258.842 30.0737 258.761 29.6364C258.68 29.2057 258.626 28.771 258.754 28.3457C258.865 27.9764 258.29 27.8204 258.178 28.187Z" fill="#231F20"/>
<path d="M260.701 24.1414C263.236 19.8201 268.176 17.8227 273.004 19.2521C275.496 19.9907 277.555 21.5134 279.355 23.3494C281.165 25.1934 282.48 27.3414 284.059 29.3587C284.248 29.6014 284.556 29.2921 284.451 29.0574C283.851 27.6961 282.921 26.4547 282.023 25.2761C281.193 24.1854 280.303 23.1387 279.328 22.1747C277.396 20.2641 275.131 18.7627 272.457 18.1321C267.675 17.0041 261.933 19.0174 260.136 23.9027C260.012 24.2374 260.528 24.4374 260.701 24.1414Z" fill="#231F20"/>
<path d="M284.015 29.0477C284.014 29.049 284.012 29.049 284.011 29.0503C284.034 29.041 284.055 29.0303 284.078 29.021C284.024 29.0423 283.967 29.053 283.91 29.061C283.935 29.057 283.959 29.0543 283.984 29.0503C283.871 29.0663 283.755 29.0717 283.64 29.0637C283.568 29.0597 283.506 29.089 283.436 29.1037C283.414 29.1077 283.375 29.1063 283.455 29.1023C283.446 29.1023 283.436 29.1037 283.427 29.1037H283.403C283.382 29.105 283.442 29.1077 283.436 29.1077C283.434 29.1077 283.428 29.1063 283.424 29.105C283.356 29.085 283.283 29.113 283.24 29.1677C283.196 29.225 283.195 29.297 283.228 29.3597C283.266 29.4343 283.34 29.489 283.407 29.5343C283.42 29.5423 283.432 29.5517 283.447 29.5597C283.502 29.5917 283.556 29.6103 283.622 29.617C283.662 29.621 283.703 29.6223 283.743 29.6237C283.823 29.625 283.904 29.621 283.984 29.6117C284.066 29.6023 284.155 29.5957 284.232 29.565C284.28 29.5503 284.322 29.5263 284.358 29.4917C284.372 29.4717 284.387 29.4543 284.402 29.4343C284.45 29.3583 284.45 29.2623 284.415 29.1837C284.386 29.113 284.336 29.0637 284.266 29.033C284.232 29.017 284.196 29.009 284.158 29.0103C284.107 29.0103 284.059 29.0223 284.015 29.0477Z" fill="#231F20"/>
<path d="M283.268 29.8419C283.709 30.2086 283.933 30.7433 284.158 31.2566C284.386 31.7766 284.634 32.4993 285.256 32.6393C285.401 32.6713 285.573 32.5379 285.516 32.3779C285.464 32.2339 285.414 32.1019 285.33 31.9753C285.249 31.8526 285.164 31.7353 285.084 31.6126C284.926 31.3686 284.794 31.1086 284.658 30.8513C284.378 30.3166 284.073 29.8006 283.577 29.4406C283.344 29.2713 283.045 29.6553 283.268 29.8419Z" fill="#231F20"/>
<path d="M285.09 32.1739C284.817 32.5859 284.451 32.9232 284.034 33.1699C283.825 33.2939 283.595 33.4072 283.39 33.4806C283.142 33.5712 282.825 33.6272 282.674 33.8659C282.635 33.9272 282.645 34.0326 282.702 34.0832C282.946 34.2939 283.306 34.2032 283.585 34.1112C283.866 34.0166 284.135 33.8926 284.385 33.7299C284.879 33.4072 285.298 32.9792 285.606 32.4752C285.807 32.1446 285.302 31.8566 285.09 32.1739Z" fill="#231F20"/>
<path d="M282.819 34.3225C282.899 34.3425 282.977 34.3678 283.053 34.4011C283.025 34.3891 282.999 34.3771 282.971 34.3651C283.093 34.4185 283.209 34.4865 283.316 34.5678C283.292 34.5491 283.268 34.5305 283.245 34.5145C283.285 34.5451 283.324 34.5771 283.361 34.6131C283.428 34.6745 283.515 34.7145 283.607 34.7145C283.692 34.7145 283.795 34.6771 283.853 34.6131C283.913 34.5465 283.959 34.4598 283.955 34.3665C283.951 34.2771 283.921 34.1838 283.853 34.1211C283.612 33.9025 283.319 33.7385 283 33.6625C282.912 33.6411 282.816 33.6505 282.736 33.6958C282.665 33.7385 282.597 33.8198 282.58 33.9011C282.56 33.9891 282.564 34.0865 282.615 34.1651C282.661 34.2398 282.731 34.2998 282.819 34.3225Z" fill="#231F20"/>
<path d="M283.579 34.1324C278.603 35.5484 274.198 39.571 268.823 39.4057C264.027 39.259 259.59 34.9404 258.903 30.251C258.847 29.871 258.263 29.9817 258.252 30.339C258.182 32.795 259.882 35.0897 261.475 36.8124C263.156 38.6297 265.312 39.8817 267.783 40.2337C273.736 41.0804 278.42 36.4884 283.772 34.8337C284.218 34.6964 284.031 34.003 283.579 34.1324Z" fill="#231F20"/>
<path d="M283.522 29.3225C280.202 26.0665 276.494 23.1451 271.773 22.4238C269.718 22.1105 267.621 22.1438 265.585 22.5731C264.548 22.7905 263.542 23.1211 262.576 23.5558C261.852 23.8811 260.438 24.3651 260.212 25.1985C260.173 25.3411 260.28 25.4558 260.416 25.4665C260.857 25.5038 261.124 25.2451 261.493 25.0278C261.94 24.7651 262.4 24.5278 262.873 24.3185C263.812 23.9038 264.806 23.5998 265.81 23.3891C267.806 22.9691 269.9 22.9505 271.908 23.2985C276.386 24.0785 279.726 26.9198 283.2 29.6451C283.425 29.8211 283.738 29.5331 283.522 29.3225Z" fill="#231F20"/>
<path d="M283.097 33.6337C280.905 34.0084 278.875 34.899 276.909 35.911C275.675 36.5484 274.471 37.279 273.168 37.7764C269.715 39.0937 266.359 38.3804 262.94 37.335C262.737 37.2724 262.597 37.5884 262.793 37.6817C265.899 39.1764 269.68 39.7764 272.989 38.619C274.213 38.191 275.339 37.5524 276.477 36.9417C278.636 35.783 280.844 34.7124 283.276 34.283C283.703 34.2084 283.521 33.5617 283.097 33.6337Z" fill="#231F20"/>
<path d="M260.843 25.8343C264.706 24.7609 268.611 23.9743 272.567 25.0609C272.674 25.0903 272.71 24.9369 272.611 24.8983C268.802 23.3729 264.533 24.4369 260.762 25.5409C260.575 25.5956 260.654 25.8863 260.843 25.8343Z" fill="#231F20"/>
<path d="M273.008 21.1466C270.793 20.7853 268.507 20.9186 266.332 21.4639C264.167 22.0079 261.585 23.0999 260.276 25.0106C260.212 25.1053 260.351 25.2026 260.429 25.1279C261.312 24.3026 262.14 23.5293 263.215 22.9466C264.268 22.3759 265.408 21.9679 266.572 21.6839C268.647 21.1799 270.867 21.0359 272.985 21.3173C273.081 21.3306 273.105 21.1626 273.008 21.1466Z" fill="#231F20"/>
<path d="M271.341 19.4553C269.231 19.1326 267.085 19.6233 265.169 20.5166C264.163 20.9846 263.216 21.5819 262.349 22.2766C261.536 22.9299 260.673 23.7219 260.189 24.6593C260.127 24.7806 260.284 24.9193 260.385 24.8113C261.063 24.0913 261.672 23.3433 262.432 22.7006C263.253 22.0046 264.164 21.4153 265.124 20.9286C267.004 19.9779 269.163 19.4113 271.273 19.7019C271.433 19.7233 271.505 19.4819 271.341 19.4553Z" fill="#231F20"/>
<path d="M276.968 28.9813C274.416 27.7079 271.627 27.4413 268.812 27.4479C267.43 27.4519 266.047 27.4799 264.663 27.4653C263.908 27.4586 263.152 27.4413 262.398 27.3999C261.703 27.3613 260.971 27.2133 260.279 27.2799C260.18 27.2879 260.162 27.4146 260.256 27.4506C261.391 27.8759 262.891 27.7559 264.091 27.7773C265.447 27.7999 266.803 27.7799 268.159 27.7679C271.12 27.7439 274.17 27.8266 276.908 29.0839C276.976 29.1173 277.038 29.0159 276.968 28.9813Z" fill="#231F20"/>
<path d="M274.45 30.3459C272.393 29.6512 270.241 29.5259 268.089 29.3952C266.943 29.3272 265.791 29.2592 264.655 29.0925C263.541 28.9299 262.503 28.5965 261.429 28.2739C261.329 28.2445 261.265 28.3925 261.358 28.4432C263.175 29.4352 265.498 29.5552 267.523 29.6739C269.831 29.8085 272.167 29.8672 274.391 30.5605C274.529 30.6032 274.586 30.3912 274.45 30.3459Z" fill="#231F20"/>
<path d="M278.389 33.2782C275.171 32.5128 271.891 32.6942 268.635 32.2715C267.19 32.0835 265.747 31.7395 264.371 31.2568C263.655 31.0048 262.954 30.7075 262.283 30.3502C261.694 30.0355 261.158 29.6142 260.542 29.3542C260.33 29.2648 259.981 29.4795 260.17 29.7262C260.927 30.7075 262.295 31.2635 263.417 31.7182C264.818 32.2875 266.282 32.6702 267.779 32.8835C271.265 33.3822 274.818 32.9968 278.297 33.6142C278.513 33.6515 278.61 33.3315 278.389 33.2782Z" fill="#231F20"/>
<path d="M270.987 34.3003C268.675 34.183 266.301 34.0643 264.116 33.2323C262.149 32.4857 260.656 31.207 259.652 29.367C259.603 29.2763 259.445 29.3377 259.483 29.4377C260.188 31.287 262.015 32.615 263.781 33.3523C266.053 34.299 268.56 34.407 270.987 34.5177C271.127 34.5243 271.125 34.3083 270.987 34.3003Z" fill="#231F20"/>
<path d="M269.406 37.0125C266.836 37.2485 263.897 36.5298 262.142 34.5365C260.684 32.8792 259.64 30.8232 258.76 28.8152C258.72 28.7205 258.565 28.7872 258.597 28.8832C259.309 31.0272 260.552 33.2205 262.088 34.8805C263.884 36.8218 266.857 37.4752 269.406 37.2032C269.526 37.1898 269.529 37.0005 269.406 37.0125Z" fill="#231F20"/>
<path d="M237.227 22.3446C240.529 24.4686 243.18 27.3673 245.857 30.1993C248.373 32.8606 251.089 35.7566 254.461 37.3313C254.692 37.4393 254.887 37.1233 254.664 36.9846C252.985 35.9433 251.393 34.8539 249.915 33.5393C248.483 32.2633 247.135 30.9059 245.799 29.5326C243.181 26.8419 240.575 24.0953 237.387 22.0726C237.215 21.9633 237.057 22.2353 237.227 22.3446Z" fill="#231F20"/>
<path d="M237.546 22.5256C240.668 24.2536 243.863 26.0682 246.579 28.4016C249.474 30.8869 251.651 34.0869 254.211 36.8936C254.362 37.0589 254.667 36.8322 254.527 36.6509C253.332 35.0949 252.048 33.6042 250.787 32.1029C249.55 30.6309 248.279 29.2109 246.799 27.9789C244.015 25.6616 240.836 24.0229 237.655 22.3362C237.532 22.2722 237.423 22.4562 237.546 22.5256Z" fill="#231F20"/>
<path d="M210.486 16.8823C213.712 19.1783 216.416 22.085 219.348 24.7263C221.91 27.0317 224.843 29.3837 228.219 30.333C228.472 30.4037 228.554 30.045 228.324 29.9503C224.8 28.4917 221.851 26.3717 219.031 23.817C216.296 21.3397 213.707 18.697 210.642 16.6143C210.476 16.5023 210.324 16.7677 210.486 16.8823Z" fill="#231F20"/>
<path d="M210.444 17.101C213.675 18.8677 216.928 20.625 220.007 22.6463C221.577 23.6783 223.101 24.7757 224.545 25.977C225.976 27.1677 227.225 28.5037 228.535 29.8183C228.691 29.973 228.991 29.7623 228.851 29.5743C226.704 26.6997 223.585 24.3957 220.604 22.4543C217.391 20.3623 213.984 18.6183 210.559 16.905C210.428 16.8397 210.313 17.0303 210.444 17.101Z" fill="#231F20"/>
<path d="M179.6 14.0933C182.895 16.1426 185.672 18.8546 188.467 21.5173C191.111 24.036 193.888 26.6946 197.216 28.2893C197.452 28.4026 197.658 28.0666 197.424 27.9333C194.044 26.004 191.17 23.548 188.336 20.8986C185.627 18.3666 182.93 15.788 179.72 13.888C179.588 13.808 179.47 14.012 179.6 14.0933Z" fill="#231F20"/>
<path d="M179.777 14.3654C182.989 15.8334 186.041 17.6107 188.859 19.7414C191.768 21.9454 194.131 24.56 196.597 27.22C196.743 27.376 197.019 27.1707 196.896 26.9907C194.921 24.0774 192.113 21.5907 189.333 19.4707C186.444 17.2707 183.251 15.468 179.865 14.1574C179.747 14.112 179.66 14.312 179.777 14.3654Z" fill="#231F20"/>
<path d="M125.676 37.2195C126.292 36.9022 126.688 36.6368 127.198 36.1528C127.767 35.6128 128.318 35.0528 128.89 34.5155C129.936 33.5288 131.01 32.5755 132.108 31.6462C134.35 29.7515 136.703 27.9982 139.146 26.3715C144.002 23.1382 149.28 20.4782 154.796 18.5742C165.778 14.7835 177.651 13.7008 189.187 14.5662C196.059 15.0808 202.878 16.1502 209.684 17.1968C210.314 17.2942 210.584 16.3302 209.95 16.2342C198.228 14.4422 186.384 12.5742 174.495 13.5928C162.528 14.6208 150.662 18.0782 140.403 24.3795C137.594 26.1062 134.915 28.0462 132.364 30.1368C131.108 31.1662 129.888 32.2382 128.703 33.3475C128.095 33.9142 127.496 34.4928 126.907 35.0808C126.27 35.7155 125.859 36.2235 125.49 37.0328C125.435 37.1555 125.55 37.2848 125.676 37.2195Z" fill="#231F20"/>
<path d="M210.575 17.0151C219.662 18.6138 228.692 20.5325 237.659 22.7045C238.142 22.8205 238.347 22.0751 237.864 21.9605C228.88 19.8205 219.819 18.0351 210.706 16.5431C210.399 16.4938 210.264 16.9605 210.575 17.0151Z" fill="#231F20"/>
<path d="M242.422 24.2118C244.619 25.2585 246.994 25.8038 249.374 26.2585C250.601 26.4945 251.831 26.7105 253.049 26.9931C253.615 27.1251 254.174 27.2758 254.733 27.4345C255.051 27.5251 255.37 27.6171 255.685 27.7185C255.847 27.7718 256.357 27.8571 256.461 27.9945C256.738 28.3651 257.319 28.4051 257.522 27.9225C257.725 27.4425 257.283 27.0398 256.817 27.1171C256.603 27.1518 256.143 26.8771 255.935 26.8065C255.622 26.7011 255.306 26.5998 254.987 26.5131C254.427 26.3598 253.857 26.2398 253.287 26.1265C252.099 25.8905 250.901 25.7131 249.703 25.5291C247.281 25.1558 244.863 24.7758 242.585 23.8238C242.365 23.7331 242.206 24.1091 242.422 24.2118Z" fill="#231F20"/>
<path d="M100.722 13.5673C96.7741 12.5753 93.3208 10.2673 90.7061 7.1726C90.4781 6.90193 89.9968 7.26593 90.2114 7.55393C92.7234 10.9273 96.4728 13.2313 100.563 14.1433C100.937 14.2259 101.097 13.6606 100.722 13.5673Z" fill="#231F20"/>
<path d="M90.7995 7.3941C91.1502 7.04211 91.3435 6.59011 91.5102 6.13144C91.6849 5.65411 91.8689 5.0901 91.5742 4.61944C91.3235 4.21677 90.7809 3.99944 90.3635 4.29144C90.1982 4.40611 90.0929 4.57011 90.0155 4.75277C89.9502 4.90211 89.9022 5.09011 89.7889 5.20611C89.9342 5.18877 90.0782 5.16877 90.2235 5.15011C89.7649 4.86211 89.1622 4.57144 88.6462 4.90477C88.4475 5.03277 88.2835 5.23811 88.2275 5.47144C88.2009 5.58611 88.1969 5.71277 88.2262 5.82877C88.2422 5.88477 88.2635 5.94344 88.2929 5.99411C88.3089 6.02477 88.3289 6.05144 88.3502 6.07811C88.3875 6.14744 88.4009 6.13677 88.3889 6.0421C88.4182 5.99144 88.4489 5.94077 88.4782 5.89011C88.5662 5.86211 88.5755 5.85277 88.5049 5.86211C88.4822 5.86344 88.4595 5.86477 88.4369 5.86611C88.3889 5.86877 88.3422 5.87411 88.2955 5.87944C88.1782 5.89277 88.0582 5.90877 87.9435 5.93811C87.7462 5.99011 87.5502 6.08344 87.4089 6.23144C86.9929 6.66477 87.2302 7.33944 87.7209 7.59544C88.5715 8.04077 89.5622 7.6341 90.4569 7.6901C90.6862 7.70344 90.8809 7.48477 90.8809 7.2661C90.8809 7.02344 90.6862 6.85944 90.4569 6.8421C89.9302 6.80344 89.4009 6.92611 88.8769 6.96877C88.6329 6.98744 88.3449 7.0061 88.1142 6.91544C88.0489 6.88877 87.9675 6.8461 87.9475 6.77277C87.9369 6.73144 87.9715 6.71411 87.9809 6.70744C88.1329 6.60477 88.3569 6.58344 88.5502 6.55944C88.7382 6.53677 88.9182 6.48477 89.0222 6.3101C89.1089 6.1581 89.0902 5.97011 89.0062 5.82211C88.9529 5.73011 88.8769 5.68877 88.9075 5.61011C88.9302 5.55144 89.0035 5.49144 89.0622 5.47144C89.3235 5.37677 89.6609 5.63944 89.8609 5.77011C89.9942 5.85811 90.1875 5.82211 90.2969 5.71411C90.5062 5.50744 90.5662 5.24344 90.7022 4.99411C90.7382 4.92744 90.7609 4.88344 90.8089 4.89011C90.8915 4.90211 90.9755 4.99144 91.0062 5.07144C91.1195 5.36344 90.9275 5.76744 90.8369 6.0421C90.7289 6.3701 90.6009 6.69944 90.3622 6.95677C90.0915 7.24877 90.5169 7.67677 90.7995 7.3941Z" fill="#231F20"/>
<path d="M90.5809 4.88623C90.7809 3.75156 90.4369 2.62889 89.6956 1.75556C89.3622 1.36089 88.9276 1.04223 88.4716 0.80356C87.9702 0.542227 87.3782 0.302227 86.8036 0.34756C86.2236 0.392893 85.7596 0.71956 85.3222 1.07556C84.9169 1.40489 84.5222 1.78089 84.3076 2.26489C83.8436 3.31289 84.4382 4.51423 85.2009 5.25423C85.9969 6.02489 87.2049 6.55423 88.3196 6.33289C88.7689 6.24489 88.6289 5.60356 88.2182 5.57556C87.4729 5.52489 86.7849 5.37023 86.1809 4.90756C85.6222 4.47823 84.9782 3.64756 85.0796 2.89689C85.1289 2.52223 85.4089 2.22489 85.6729 1.97689C85.9556 1.71289 86.2809 1.41289 86.6529 1.28623C87.0622 1.14623 87.5356 1.33156 87.9089 1.50623C88.2742 1.67956 88.6076 1.90089 88.9076 2.17289C89.6569 2.84889 90.0676 3.78889 89.9622 4.80356C89.9262 5.15289 90.5196 5.23689 90.5809 4.88623Z" fill="#231F20"/>
<path d="M85.6433 1.37315C85.802 1.43315 85.9513 1.50915 86.1113 1.57049C86.258 1.62649 86.402 1.69315 86.5513 1.77182C86.854 1.92782 87.146 2.10515 87.4393 2.27849C87.6193 2.38515 87.7873 2.14515 87.6566 1.99715C87.174 1.45049 86.474 1.07849 85.7673 0.922488C85.6446 0.895821 85.5153 0.958488 85.4806 1.08515C85.4446 1.21715 85.526 1.32782 85.6433 1.37315Z" fill="#231F20"/>
<path d="M85.7514 2.12581C85.9341 2.29648 86.1021 2.48181 86.2567 2.67781C86.2807 2.70848 86.2314 2.64448 86.2541 2.67381C86.2647 2.68848 86.2754 2.70181 86.2847 2.71514L86.3394 2.78981C86.3847 2.85248 86.4247 2.91914 86.4767 2.97514C86.5594 3.06581 86.6421 3.15648 86.7207 3.25381C86.8394 3.40048 87.0981 3.24181 87.0381 3.06848C86.9927 2.93781 86.9421 2.81114 86.8874 2.68314C86.8314 2.55381 86.7247 2.43514 86.6394 2.32448C86.4807 2.12181 86.3074 1.93114 86.1194 1.75781C86.0207 1.66314 85.8487 1.65114 85.7514 1.75781C85.6581 1.85781 85.6447 2.02581 85.7514 2.12581Z" fill="#231F20"/>
<path d="M85.1948 2.19483C85.1774 2.57617 85.2308 2.96417 85.3521 3.32683C85.4788 3.7015 85.7134 4.04017 85.9828 4.32683C86.0828 4.4335 86.2654 4.42817 86.3668 4.32683C86.4788 4.21483 86.4588 4.05617 86.3668 3.94283C86.2774 3.8335 86.1828 3.68683 86.1068 3.54817C86.0654 3.47217 86.0281 3.39483 85.9948 3.31617C86.0041 3.33883 86.0014 3.3335 85.9881 3.29883C85.9734 3.2655 85.9601 3.23083 85.9441 3.1975C85.9361 3.1775 85.9268 3.15883 85.9188 3.13883C85.9254 3.1575 85.9254 3.15617 85.9174 3.1375C85.7894 2.82417 85.7241 2.51617 85.7161 2.19483C85.7068 1.85883 85.2108 1.86017 85.1948 2.19483Z" fill="#231F20"/>
<path d="M66.7736 17.8993C62.8269 16.9073 59.3722 14.5993 56.7576 11.5033C56.5296 11.234 56.0496 11.5966 56.2629 11.8846C58.7749 15.258 62.5242 17.562 66.6149 18.4753C66.9882 18.558 67.1482 17.9926 66.7736 17.8993Z" fill="#231F20"/>
<path d="M56.851 11.7248C57.203 11.3728 57.395 10.9221 57.5617 10.4634C57.7364 9.98609 57.9204 9.42209 57.6257 8.95142C57.375 8.54742 56.8324 8.33142 56.415 8.62342C56.2497 8.73809 56.1444 8.90209 56.067 9.08342C56.0017 9.23409 55.955 9.42209 55.8404 9.53675C55.9857 9.51942 56.1297 9.50075 56.275 9.48075C55.8164 9.19275 55.2137 8.90209 54.699 9.23675C54.499 9.36475 54.335 9.56875 54.2804 9.80209C54.2524 9.91809 54.2484 10.0448 54.279 10.1594C54.2937 10.2168 54.3164 10.2741 54.3444 10.3261C54.3617 10.3554 54.3804 10.3834 54.403 10.4101C54.4404 10.4781 54.4537 10.4674 54.4404 10.3741C54.4697 10.3234 54.5004 10.2728 54.5297 10.2221C54.6177 10.1941 54.627 10.1834 54.5564 10.1928C54.5337 10.1941 54.511 10.1954 54.4884 10.1968C54.4404 10.2008 54.3937 10.2048 54.347 10.2101C54.2297 10.2248 54.111 10.2408 53.995 10.2701C53.799 10.3221 53.6017 10.4141 53.4604 10.5621C53.0444 10.9968 53.2817 11.6701 53.7724 11.9274C54.623 12.3714 55.6137 11.9661 56.5097 12.0208C56.7377 12.0341 56.9324 11.8154 56.9324 11.5968C56.9324 11.3541 56.739 11.1914 56.5097 11.1741C55.9817 11.1354 55.4537 11.2568 54.9297 11.2994C54.6857 11.3181 54.3964 11.3381 54.1657 11.2474C54.1004 11.2208 54.019 11.1781 53.999 11.1034C53.9884 11.0621 54.023 11.0461 54.0324 11.0394C54.1844 10.9368 54.4097 10.9141 54.6017 10.8901C54.7897 10.8674 54.9697 10.8168 55.0737 10.6421C55.1617 10.4901 55.1417 10.3021 55.0577 10.1541C55.0044 10.0621 54.9284 10.0208 54.959 9.94209C54.983 9.88342 55.055 9.82342 55.1137 9.80209C55.375 9.70742 55.7124 9.97142 55.9124 10.1021C56.0457 10.1888 56.239 10.1528 56.3484 10.0448C56.5577 9.83942 56.6177 9.57409 56.7537 9.32609C56.791 9.25942 56.8124 9.21542 56.8604 9.22209C56.943 9.23275 57.027 9.32342 57.0577 9.40209C57.171 9.69409 56.979 10.0981 56.8884 10.3728C56.7804 10.7021 56.6524 11.0301 56.4137 11.2874C56.143 11.5794 56.5684 12.0088 56.851 11.7248Z" fill="#231F20"/>
<path d="M56.6322 9.2182C56.8322 8.08353 56.4882 6.96087 55.7469 6.0862C55.4135 5.69287 54.9789 5.3742 54.5229 5.13553C54.0215 4.8742 53.4295 4.6342 52.8549 4.67953C52.2749 4.72487 51.8109 5.05153 51.3735 5.40753C50.9682 5.73553 50.5735 6.11153 50.3589 6.59687C49.8949 7.64353 50.4895 8.8462 51.2522 9.58487C52.0482 10.3569 53.2562 10.8862 54.3722 10.6649C54.8202 10.5755 54.6802 9.9342 54.2695 9.90753C53.5255 9.85687 52.8362 9.7022 52.2322 9.23953C51.6735 8.8102 51.0295 7.9782 51.1309 7.22753C51.1815 6.85287 51.4602 6.55553 51.7242 6.30753C52.0082 6.04487 52.3322 5.74487 52.7042 5.6182C53.1135 5.4782 53.5869 5.66353 53.9602 5.8382C54.3269 6.0102 54.6589 6.23287 54.9602 6.50353C55.7095 7.18087 56.1189 8.12087 56.0135 9.13553C55.9775 9.48487 56.5709 9.56753 56.6322 9.2182Z" fill="#231F20"/>
<path d="M51.6954 5.70396C51.8541 5.76529 52.0021 5.83996 52.1634 5.90129C52.3088 5.95862 52.4541 6.02529 52.6034 6.10262C52.9048 6.25996 53.1981 6.43729 53.4914 6.60929C53.6714 6.71596 53.8394 6.47729 53.7074 6.32796C53.2261 5.78262 52.5261 5.40929 51.8194 5.25329C51.6954 5.22796 51.5661 5.29062 51.5314 5.41729C51.4968 5.54929 51.5768 5.65862 51.6954 5.70396Z" fill="#231F20"/>
<path d="M51.8029 6.45646C51.9856 6.62846 52.1536 6.81379 52.3096 7.00979C52.3322 7.03913 52.2842 6.97513 52.3056 7.00579C52.3162 7.01913 52.3269 7.03379 52.3362 7.04579C52.3562 7.07113 52.3736 7.09513 52.3909 7.12179C52.4362 7.18313 52.4762 7.24979 52.5282 7.30713C52.6122 7.39779 52.6936 7.48846 52.7722 7.58446C52.8922 7.73246 53.1496 7.57379 53.0896 7.39913C53.0456 7.26846 52.9936 7.14179 52.9389 7.01513C52.8842 6.88446 52.7762 6.76713 52.6909 6.65646C52.5322 6.45379 52.3589 6.26313 52.1709 6.08846C52.0722 5.99513 51.9002 5.98313 51.8029 6.08846C51.7096 6.18979 51.6962 6.35779 51.8029 6.45646Z" fill="#231F20"/>
<path d="M51.2469 6.52686C51.2296 6.90686 51.2829 7.2962 51.4042 7.65753C51.5296 8.0322 51.7642 8.3722 52.0336 8.65886C52.1349 8.76553 52.3162 8.7602 52.4176 8.65886C52.5309 8.54553 52.5109 8.3882 52.4176 8.27486C52.3296 8.16553 52.2336 8.01886 52.1589 7.87886C52.1176 7.8042 52.0789 7.72553 52.0469 7.6482C52.0562 7.66953 52.0536 7.66553 52.0402 7.63086C52.0256 7.59753 52.0109 7.56286 51.9962 7.52953C51.9882 7.50953 51.9789 7.49086 51.9696 7.47086C51.9776 7.48953 51.9776 7.4882 51.9696 7.4682C51.8416 7.1562 51.7762 6.84686 51.7682 6.52686C51.7589 6.19086 51.2616 6.1922 51.2469 6.52686Z" fill="#231F20"/>
<path d="M89.0633 14.881C87.894 18.7384 85.4406 22.0837 82.2513 24.5237C81.938 24.7637 82.2246 25.2997 82.5686 25.069C86.0566 22.7237 88.5326 19.0757 89.6393 15.0397C89.7406 14.6677 89.174 14.513 89.0633 14.881Z" fill="#231F20"/>
<path d="M82.4129 24.4695C82.0796 24.1015 81.6329 23.8935 81.1822 23.7055C80.7089 23.5069 80.1609 23.3029 79.6742 23.5815C79.2622 23.8175 79.0316 24.3589 79.3116 24.7815C79.4209 24.9469 79.5849 25.0615 79.7622 25.1469C79.9142 25.2189 80.0862 25.2735 80.2022 25.3975C80.1836 25.2522 80.1636 25.1082 80.1462 24.9629C79.8356 25.4055 79.5302 25.9869 79.8342 26.5149C79.9516 26.7175 80.1529 26.8922 80.3809 26.9562C80.4969 26.9909 80.6262 26.9975 80.7462 26.9722C80.8129 26.9575 80.8796 26.9322 80.9396 26.8975C80.9622 26.8855 80.9849 26.8722 81.0049 26.8549C81.0769 26.8189 81.0662 26.8095 80.9742 26.8282C80.9236 26.7989 80.8716 26.7695 80.8209 26.7389C80.7862 26.6535 80.7742 26.6469 80.7822 26.7175C80.7822 26.7322 80.7822 26.7495 80.7822 26.7655C80.7836 26.8229 80.7862 26.8789 80.7902 26.9362C80.8009 27.0562 80.8142 27.1802 80.8409 27.2989C80.8876 27.5015 80.9809 27.7042 81.1356 27.8469C81.5756 28.2562 82.2436 28.0069 82.5036 27.5202C82.9489 26.6855 82.6049 25.7029 82.7022 24.8162C82.7276 24.5882 82.4902 24.3922 82.2796 24.3922C82.0276 24.3922 81.8836 24.5882 81.8556 24.8162C81.7942 25.3255 81.8822 25.8415 81.9036 26.3495C81.9129 26.5935 81.9156 26.8642 81.8316 27.0975C81.8036 27.1722 81.7582 27.2722 81.6729 27.2962C81.6276 27.3095 81.6222 27.2882 81.6089 27.2709C81.4956 27.1122 81.4982 26.8642 81.4822 26.6695C81.4502 26.2829 81.1422 26.0055 80.7529 26.2042C80.6769 26.2429 80.6396 26.3082 80.5636 26.2895C80.4929 26.2749 80.4316 26.1682 80.4156 26.1055C80.3502 25.8375 80.6236 25.5215 80.7662 25.3255C80.8622 25.1922 80.8089 25.0002 80.7102 24.8895C80.5142 24.6695 80.2462 24.6069 80.0076 24.4535C79.9609 24.4229 79.9209 24.4015 79.9236 24.3589C79.9276 24.2762 80.0209 24.2029 80.0902 24.1722C80.3862 24.0469 80.8182 24.2775 81.0902 24.3842C81.4142 24.5069 81.7302 24.6575 81.9756 24.9069C82.2556 25.1935 82.6796 24.7642 82.4129 24.4695Z" fill="#231F20"/>
<path d="M79.894 24.5736C78.7966 24.3243 77.654 24.6083 76.766 25.2923C76.3393 25.6216 75.99 26.043 75.718 26.507C75.434 26.991 75.166 27.583 75.1926 28.1563C75.2193 28.751 75.5446 29.2496 75.8953 29.7096C76.2206 30.135 76.5846 30.5443 77.0846 30.7643C78.1033 31.2123 79.29 30.6563 80.0433 29.9443C80.85 29.1843 81.406 28.007 81.2393 26.887C81.2113 26.699 80.986 26.5896 80.8166 26.611C80.614 26.6403 80.5046 26.7963 80.482 26.9896C80.3966 27.7256 80.202 28.415 79.7046 28.9856C79.2486 29.5096 78.482 30.0483 77.7486 29.9896C77.3566 29.959 77.0553 29.671 76.8086 29.3896C76.5446 29.0923 76.2486 28.7363 76.13 28.351C76.0046 27.9443 76.1926 27.5056 76.374 27.1456C76.5646 26.7683 76.8073 26.4363 77.102 26.1363C77.7833 25.439 78.7433 25.031 79.7273 25.1816C80.1166 25.2416 80.298 24.6656 79.894 24.5736Z" fill="#231F20"/>
<path d="M76.1408 29.3862C76.2101 29.2302 76.2928 29.0809 76.3621 28.9262C76.4341 28.7662 76.5141 28.6089 76.6021 28.4569C76.7741 28.1582 76.9674 27.8702 77.1568 27.5836C77.2048 27.5102 77.1781 27.4036 77.1101 27.3529C77.0328 27.2956 76.9461 27.3089 76.8741 27.3662C76.3048 27.8236 75.9048 28.5076 75.7141 29.2062C75.6848 29.3169 75.7434 29.4382 75.8501 29.4809C75.9461 29.5209 76.0941 29.4942 76.1408 29.3862Z" fill="#231F20"/>
<path d="M76.9272 29.2613C77.0138 29.1773 77.1045 29.0946 77.1978 29.0159C77.2218 28.9959 77.2472 28.9759 77.2725 28.9559C77.2832 28.9479 77.2952 28.9386 77.3058 28.9293C77.3365 28.9039 77.2725 28.9546 77.3045 28.9306C77.3552 28.8919 77.4072 28.8533 77.4592 28.8159C77.5698 28.7373 77.6938 28.6746 77.7978 28.5879C77.8432 28.5506 77.8885 28.5119 77.9338 28.4746C77.9445 28.4653 77.9552 28.4573 77.9672 28.4493C77.9752 28.4426 77.9912 28.4306 77.9738 28.4439C78.0018 28.4213 78.0312 28.3999 78.0592 28.3799C78.1365 28.3226 78.1765 28.2346 78.1378 28.1413C78.1018 28.0573 78.0045 28.0053 77.9138 28.0319C77.7925 28.0666 77.6725 28.1053 77.5565 28.1506C77.4232 28.2026 77.3045 28.2893 77.1872 28.3719C76.9645 28.5293 76.7538 28.7026 76.5592 28.8933C76.4605 28.9879 76.4552 29.1666 76.5592 29.2613C76.6645 29.3573 76.8232 29.3626 76.9272 29.2613Z" fill="#231F20"/>
<path d="M76.9741 29.8289C77.3541 29.8636 77.7448 29.8262 78.1128 29.7222C78.4928 29.6142 78.8394 29.3902 79.1381 29.1356C79.2394 29.0489 79.2368 28.8769 79.1594 28.7796C79.0821 28.6836 78.9181 28.6276 78.8088 28.7089C78.6688 28.8116 78.5208 28.9036 78.3648 28.9796C78.2328 29.0449 78.0994 29.0916 77.9381 29.1502C77.6101 29.2676 77.3154 29.3142 76.9741 29.3076C76.8328 29.3036 76.7128 29.4289 76.7128 29.5689C76.7128 29.7196 76.8328 29.8156 76.9741 29.8289Z" fill="#231F20"/>
<path d="M126.688 16.881C123.436 19.329 119.488 20.5797 115.433 20.677C115.026 20.6863 115.028 21.2917 115.433 21.3063C119.642 21.465 123.77 19.9583 127.049 17.3503C127.313 17.141 126.96 16.677 126.688 16.881Z" fill="#231F20"/>
<path d="M115.632 20.7782C115.573 20.2382 115.326 19.7769 115.048 19.3195C114.809 18.9315 114.512 18.5075 114.033 18.4142C113.606 18.3302 113.113 18.5222 112.973 18.9609C112.9 19.1942 112.954 19.4289 113.053 19.6449C113.121 19.7942 113.27 19.9555 113.29 20.1209C113.378 20.0049 113.466 19.8902 113.554 19.7742C113.02 19.9582 112.405 20.2382 112.341 20.8755C112.316 21.1302 112.392 21.4009 112.564 21.5915C112.649 21.6875 112.764 21.7622 112.886 21.7995C112.95 21.8169 113.13 21.8182 113.15 21.8342C113.109 21.7929 113.068 21.7515 113.026 21.7102L113.048 21.7462C113.032 21.6875 113.017 21.6302 113 21.5715C113.004 21.6209 112.852 21.7835 112.818 21.8382C112.754 21.9462 112.7 22.0622 112.657 22.1809C112.572 22.4155 112.562 22.6755 112.674 22.9035C112.92 23.4062 113.56 23.4489 114.001 23.1955C114.388 22.9729 114.673 22.5902 114.922 22.2329C115.153 21.9022 115.369 21.5009 115.616 21.2302C115.981 20.8289 115.39 20.2315 115.017 20.6315C114.637 21.0369 114.382 21.5395 114.076 21.9969C113.949 22.1862 113.809 22.3742 113.604 22.5155C113.47 22.6049 113.296 22.6369 113.341 22.4315C113.409 22.1235 113.72 21.8995 113.692 21.5715C113.677 21.3902 113.558 21.2382 113.384 21.1809C113.294 21.1515 113.14 21.1809 113.07 21.1369C113.021 21.1049 113.022 20.9155 113.072 20.8369C113.204 20.6222 113.522 20.5382 113.745 20.4675C113.882 20.4222 114.026 20.2795 114.009 20.1209C113.99 19.9395 113.944 19.7889 113.864 19.6262C113.809 19.5115 113.706 19.3902 113.682 19.2635C113.656 19.1195 113.816 19.0795 113.962 19.1315C114.245 19.2342 114.43 19.6022 114.582 19.8395C114.789 20.1582 114.966 20.4795 115.024 20.8609C115.076 21.2009 115.67 21.1249 115.632 20.7782Z" fill="#231F20"/>
<path d="M113.508 19.3029C112.788 18.4762 111.697 18.0389 110.608 18.0616C110.008 18.0749 109.431 18.2402 108.888 18.4909C108.387 18.7202 107.864 19.0482 107.569 19.5296C107.276 20.0136 107.259 20.6149 107.272 21.1656C107.285 21.7082 107.353 22.2936 107.661 22.7562C108.255 23.6456 109.472 23.8816 110.468 23.7536C111.532 23.6176 112.712 23.0349 113.227 22.0509C113.423 21.6762 112.931 21.2482 112.621 21.5829C112.105 22.1416 111.563 22.5829 110.811 22.7722C110.137 22.9416 109.251 22.9136 108.669 22.4896C108.359 22.2629 108.251 21.8802 108.209 21.5149C108.164 21.1122 108.137 20.6456 108.239 20.2509C108.351 19.8242 108.716 19.5842 109.081 19.3816C109.492 19.1536 109.933 19.0122 110.396 18.9362C111.364 18.7749 112.363 19.0522 113.063 19.7482C113.353 20.0376 113.772 19.6069 113.508 19.3029Z" fill="#231F20"/>
<path d="M107.688 20.9904C107.834 20.9077 107.987 20.837 108.132 20.753C108.283 20.6664 108.438 20.5877 108.596 20.5184C108.898 20.3824 109.212 20.2704 109.522 20.1544C109.606 20.1237 109.664 20.0517 109.651 19.9584C109.638 19.8744 109.566 19.7984 109.475 19.8024C109.1 19.8197 108.744 19.9077 108.398 20.049C108.222 20.121 108.048 20.1984 107.88 20.2877C107.71 20.377 107.555 20.505 107.406 20.625C107.315 20.6957 107.322 20.849 107.387 20.9304C107.459 21.021 107.586 21.0504 107.688 20.9904Z" fill="#231F20"/>
<path d="M108.402 21.3602C108.368 21.3642 108.451 21.3536 108.46 21.3522C108.49 21.3482 108.518 21.3456 108.547 21.3429C108.61 21.3362 108.671 21.3322 108.734 21.3296C108.854 21.3229 108.975 21.3202 109.095 21.3229C109.214 21.3242 109.336 21.3429 109.455 21.3362C109.579 21.3322 109.702 21.3229 109.826 21.3229C109.92 21.3216 110.002 21.2509 110.012 21.1576C110.024 21.0589 109.968 20.9816 109.876 20.9482C109.754 20.9042 109.624 20.8522 109.495 20.8282C109.36 20.8016 109.216 20.8029 109.08 20.8002C108.806 20.7962 108.534 20.8189 108.263 20.8576C108.127 20.8762 108.04 21.0549 108.08 21.1776C108.128 21.3269 108.256 21.3802 108.402 21.3602Z" fill="#231F20"/>
<path d="M108.044 21.8263C108.344 22.0903 108.682 22.2917 109.054 22.4343C109.407 22.5703 109.814 22.5997 110.19 22.5717C110.336 22.5597 110.46 22.4543 110.46 22.2983C110.46 22.153 110.338 22.0263 110.19 22.0277C109.85 22.029 109.567 21.965 109.228 21.8637C108.918 21.7717 108.632 21.625 108.36 21.4157C108.259 21.3383 108.094 21.3903 108.024 21.4837C107.951 21.581 107.946 21.7383 108.044 21.8263Z" fill="#231F20"/>
<path d="M58.2756 19.6753C57.6502 21.4927 56.8849 23.2513 55.8702 24.8873C54.8982 26.4567 53.6622 27.8313 52.3542 29.126C52.0622 29.414 52.4956 29.834 52.7996 29.5713C54.2422 28.3193 55.4956 26.8833 56.5062 25.2593C57.5516 23.582 58.2636 21.714 58.8516 19.8327C58.9676 19.4647 58.3996 19.314 58.2756 19.6753Z" fill="#231F20"/>
<path d="M52.5678 29.049C52.1878 28.725 51.7318 28.5596 51.2572 28.4276C50.7785 28.2956 50.1998 28.1436 49.7558 28.457C49.3465 28.7436 49.1572 29.313 49.5038 29.7263C49.6345 29.881 49.8132 29.965 49.9998 30.0316C50.1425 30.0823 50.3278 30.109 50.4278 30.193C50.4092 30.0476 50.3905 29.9036 50.3718 29.7583C50.1025 30.2716 49.8518 30.9156 50.2772 31.4223C50.4292 31.6036 50.6492 31.7263 50.8852 31.7503C51.0145 31.765 51.1398 31.745 51.2585 31.6903C51.3412 31.653 51.4292 31.5383 51.5025 31.5236H51.3185L51.3665 31.5356C51.3145 31.5063 51.2638 31.4756 51.2132 31.4463C51.1958 31.3956 51.1932 31.401 51.2065 31.4623C51.2105 31.4836 51.2132 31.5076 51.2172 31.529C51.2252 31.5823 51.2332 31.637 51.2438 31.6903C51.2625 31.785 51.2838 31.877 51.3158 31.9663C51.3945 32.193 51.5105 32.4036 51.7105 32.5436C52.2132 32.8956 52.8185 32.5316 53.0172 32.0223C53.1918 31.5743 53.1238 31.0543 53.0545 30.5916C53.0212 30.365 52.9798 30.141 52.9385 29.917C52.8972 29.6876 52.8758 29.6036 52.8732 29.3836C52.8638 28.8396 52.0238 28.8383 52.0265 29.3836C52.0278 29.925 52.1852 30.457 52.2772 30.9863C52.3092 31.1676 52.3438 31.4303 52.2998 31.6716C52.2825 31.773 52.2492 31.857 52.1705 31.917C52.1798 31.9103 52.0932 31.9516 52.1412 31.9303C52.0958 31.917 52.0892 31.9143 52.1185 31.9223C52.1385 31.945 52.1318 31.9396 52.0998 31.909C52.0025 31.7516 51.9345 31.5396 51.8918 31.3196C51.8105 30.9116 51.4265 30.7063 51.0785 30.9823C51.0692 30.989 50.9785 31.0703 50.9932 31.0623C50.9572 31.0836 50.9772 31.077 50.9358 31.0623C50.8732 31.0423 50.8118 30.9943 50.7758 30.9236C50.6505 30.6903 50.8785 30.3276 50.9918 30.121C51.0638 29.9876 51.0572 29.7916 50.9358 29.6863C50.7118 29.489 50.4198 29.429 50.1785 29.325C50.1305 29.3036 50.0758 29.2716 50.0638 29.2543C50.0278 29.2063 50.0585 29.2463 50.0572 29.245C50.0665 29.2703 50.0545 29.2196 50.0558 29.2103C50.0638 29.153 50.1252 29.0636 50.1998 29.021C50.4665 28.8676 50.8932 29.0276 51.1665 29.0943C51.4998 29.1756 51.8545 29.269 52.1305 29.4876C52.2612 29.5903 52.4398 29.6156 52.5678 29.4876C52.6785 29.3756 52.6958 29.1583 52.5678 29.049" fill="#231F20"/>
<path d="M50.008 29.4422C48.9053 29.3355 47.8026 29.7822 47.028 30.5622C46.3013 31.2929 45.6746 32.5529 45.844 33.6035C45.9373 34.1742 46.3266 34.6289 46.716 35.0289C47.084 35.4075 47.5013 35.7635 48.0093 35.9315C49.064 36.2782 50.208 35.5729 50.8573 34.7769C51.5453 33.9342 52.0013 32.6995 51.696 31.6169C51.5786 31.2022 50.9346 31.2782 50.9386 31.7195C50.9466 32.4822 50.8506 33.1755 50.4306 33.8302C50.056 34.4142 49.36 35.0302 48.636 35.0849C48.2306 35.1169 47.8786 34.8649 47.592 34.6062C47.2986 34.3395 46.96 34.0315 46.7933 33.6662C46.6133 33.2689 46.76 32.8009 46.896 32.4129C47.0333 32.0195 47.2426 31.6529 47.4946 31.3209C48.0973 30.5329 49.008 30.0475 50.008 30.0729C50.42 30.0809 50.404 29.4795 50.008 29.4422Z" fill="#231F20"/>
<path d="M46.9474 34.6623C46.9981 34.4929 47.0621 34.3289 47.1141 34.1609C47.1634 34.0036 47.2181 33.8476 47.2821 33.6943C47.4101 33.3916 47.5608 33.0929 47.7061 32.7969C47.7928 32.6223 47.5741 32.4249 47.4248 32.5796C46.9194 33.1023 46.5981 33.8209 46.4968 34.5383C46.4794 34.6636 46.5274 34.7903 46.6608 34.8263C46.7834 34.8596 46.9114 34.7849 46.9474 34.6623Z" fill="#231F20"/>
<path d="M47.6798 34.493C47.8358 34.2983 48.0065 34.1143 48.1905 33.9463C48.2358 33.905 48.2812 33.8637 48.3278 33.825C48.3745 33.7863 48.4265 33.7503 48.4665 33.7063C48.5545 33.6157 48.6398 33.521 48.7318 33.4343C48.8012 33.369 48.8025 33.257 48.7465 33.1863C48.6838 33.105 48.5905 33.0983 48.5012 33.1357C48.3852 33.1877 48.2665 33.241 48.1558 33.3023C48.0905 33.341 48.0318 33.3957 47.9745 33.4437C47.9252 33.485 47.8758 33.5263 47.8292 33.5703C47.6425 33.7423 47.4692 33.9263 47.3105 34.125C47.2665 34.181 47.2345 34.2357 47.2345 34.309C47.2345 34.373 47.2638 34.4503 47.3105 34.493C47.4052 34.5797 47.5892 34.6077 47.6798 34.493Z" fill="#231F20"/>
<path d="M47.7866 35.0282C48.1773 35.0148 48.56 34.9322 48.92 34.7802C49.2773 34.6295 49.5946 34.3775 49.856 34.0922C49.9533 33.9828 49.9626 33.8148 49.856 33.7082C49.7493 33.6015 49.5773 33.6068 49.472 33.7082C49.4093 33.7668 49.3453 33.8242 49.2786 33.8775C49.24 33.9082 49.304 33.8588 49.264 33.8895C49.248 33.9002 49.232 33.9122 49.2146 33.9242C49.1826 33.9468 49.1493 33.9695 49.116 33.9922C48.9733 34.0855 48.82 34.1655 48.668 34.2428C48.632 34.2615 48.596 34.2788 48.56 34.2948C48.5413 34.3042 48.5226 34.3122 48.5053 34.3202C48.4586 34.3388 48.5373 34.3068 48.4906 34.3255C48.4106 34.3575 48.3306 34.3868 48.248 34.4108C48.1706 34.4348 48.092 34.4535 48.0133 34.4708C47.924 34.4895 47.8546 34.5002 47.7866 34.5068C47.6466 34.5215 47.5253 34.6162 47.5253 34.7682C47.5253 34.9055 47.6453 35.0335 47.7866 35.0282Z" fill="#231F20"/>
<path d="M121.398 15.3745C117.858 12.9265 115.52 9.18386 112.409 6.27186C109.413 3.46519 105.5 1.12252 101.406 0.449192C100.992 0.379858 100.818 0.951859 101.232 1.08653C103.316 1.77986 105.374 2.50653 107.296 3.58653C109.161 4.63719 110.868 5.93852 112.388 7.44652C115.27 10.3025 117.618 13.6799 121.12 15.8519C121.425 16.0425 121.688 15.5745 121.398 15.3745Z" fill="#231F20"/>
<path d="M121.589 15.2195C117.483 14.1649 113.395 12.8609 109.79 10.5809C107.993 9.44488 106.362 8.05021 105.022 6.39421C103.486 4.49421 102.433 2.30221 101.235 0.191546C100.99 -0.241788 100.375 0.136879 100.579 0.575546C102.555 4.83288 105.139 8.62621 109.107 11.2382C112.791 13.6635 117.114 15.0222 121.403 15.8902C121.838 15.9769 122.026 15.3315 121.589 15.2195Z" fill="#231F20"/>
<path d="M121.381 15.0933C117.58 13.0386 114.606 9.93598 111.472 7.03064C110.032 5.69731 108.54 4.41731 106.912 3.31731C105.428 2.31198 103.566 1.11464 101.745 0.891976C101.545 0.867976 101.474 1.17864 101.644 1.26664C102.552 1.73198 103.55 2.01864 104.466 2.48531C105.304 2.90931 106.108 3.39864 106.882 3.92531C108.628 5.11598 110.222 6.50798 111.786 7.92131C114.76 10.6133 117.638 13.4853 121.238 15.3373C121.4 15.42 121.541 15.18 121.381 15.0933Z" fill="#231F20"/>
<path d="M120.023 14.3367C116.547 12.7247 113.223 10.7314 110.142 8.45273C108.575 7.29406 107.078 6.04606 105.652 4.71673C104.934 4.04473 104.232 3.35539 103.551 2.64606C102.942 2.01273 102.378 1.19539 101.63 0.724727C101.451 0.614061 101.282 0.827393 101.362 0.992726C101.742 1.78206 102.54 2.43006 103.154 3.04339C103.85 3.73939 104.564 4.41673 105.296 5.07273C106.706 6.33539 108.179 7.53006 109.703 8.64873C112.887 10.9901 116.307 12.9207 119.924 14.5061C120.038 14.5554 120.138 14.3901 120.023 14.3367Z" fill="#231F20"/>
<path d="M86.571 14.8458C82.8364 12.8312 80.111 9.45251 76.771 6.90318C73.4364 4.35918 69.207 2.41918 64.9764 2.19651C64.607 2.17651 64.5217 2.76851 64.8884 2.84718C67.007 3.29918 69.1124 3.78184 71.1164 4.62184C73.1537 5.47651 75.0604 6.62051 76.7857 7.99651C79.927 10.5032 82.6084 13.5658 86.2924 15.3232C86.6097 15.4752 86.8884 15.0165 86.571 14.8458Z" fill="#231F20"/>
<path d="M86.7533 14.6649C82.5533 14.0702 78.3173 13.2302 74.4826 11.3516C72.5853 10.4196 70.8186 9.2329 69.3133 7.74356C67.5733 6.02356 66.2786 3.97023 64.852 1.99823C64.572 1.61023 63.9373 1.95556 64.196 2.38223C66.6373 6.41156 69.6426 9.93556 73.9 12.0889C77.8506 14.0862 82.284 14.9556 86.6613 15.3476C87.0466 15.3822 87.1426 14.7196 86.7533 14.6649Z" fill="#231F20"/>
<path d="M86.4754 14.5464C82.5581 12.9597 79.3061 10.2757 75.9501 7.77838C74.3167 6.56238 72.6394 5.40238 70.8327 4.45305C69.2407 3.61705 67.2661 2.62772 65.4354 2.60238C65.1967 2.59972 65.1794 2.92105 65.3821 2.99705C66.3194 3.35038 67.3234 3.52505 68.2674 3.87705C69.2821 4.25438 70.2594 4.72372 71.2074 5.24505C72.9914 6.22772 74.6634 7.39705 76.3114 8.58638C79.5247 10.9064 82.6647 13.393 86.4007 14.8184C86.5714 14.885 86.6407 14.6144 86.4754 14.5464Z" fill="#231F20"/>
<path d="M85.0489 13.9474C81.3835 12.7167 77.8275 11.0847 74.4902 9.13272C72.8929 8.19806 71.3475 7.17939 69.8582 6.08072C69.0382 5.47406 68.2342 4.84339 67.4502 4.19139C66.7649 3.62072 66.1022 2.85272 65.2982 2.46072C65.1329 2.37939 64.9195 2.55139 65.0315 2.72872C65.5049 3.47939 66.3662 4.03806 67.0529 4.58739C67.7742 5.16339 68.5102 5.72339 69.2595 6.26206C70.8742 7.42472 72.5515 8.50606 74.2782 9.49539C77.6769 11.4461 81.2582 12.9701 84.9969 14.1367C85.1182 14.1741 85.1675 13.9861 85.0489 13.9474Z" fill="#231F20"/>
<path d="M58.7248 19.6909C54.7368 18.3482 51.5088 15.4989 47.8195 13.5629C44.1021 11.6122 39.5955 10.3856 35.3821 10.8802C34.9675 10.9282 34.9448 11.5242 35.3821 11.5429C37.6395 11.6336 39.8781 11.7696 42.0808 12.3082C44.1968 12.8269 46.2181 13.6402 48.1181 14.7042C51.5741 16.6376 54.7088 19.1322 58.5781 20.2242C58.9235 20.3229 59.0595 19.8042 58.7248 19.6909Z" fill="#231F20"/>
<path d="M58.8628 19.4878C54.5668 19.6131 50.2121 19.4891 46.0668 18.2451C43.9948 17.6251 42.0214 16.6958 40.2654 15.4265C38.3668 14.0545 36.8121 12.3158 35.1468 10.6851C34.7934 10.3398 34.2921 10.8571 34.6108 11.2238C37.6361 14.7091 41.1121 17.6251 45.5614 19.0531C49.8281 20.4225 54.4308 20.5411 58.8628 20.1825C59.3028 20.1478 59.3148 19.4745 58.8628 19.4878Z" fill="#231F20"/>
<path d="M58.627 19.4253C54.4924 18.52 50.835 16.432 47.1004 14.536C45.311 13.628 43.4884 12.7813 41.5804 12.1507C39.8284 11.5707 37.6897 10.9347 35.827 11.212C35.631 11.24 35.639 11.564 35.827 11.5987C36.8097 11.7813 37.8204 11.788 38.807 11.9747C39.799 12.1627 40.7737 12.4293 41.731 12.748C43.7844 13.436 45.743 14.368 47.6844 15.3173C51.2004 17.0387 54.675 18.932 58.5524 19.6973C58.7284 19.7307 58.8057 19.464 58.627 19.4253Z" fill="#231F20"/>
<path d="M57.1121 19.0737C53.3268 18.487 49.5801 17.491 45.9908 16.155C44.1628 15.4737 42.3761 14.6897 40.6374 13.8057C39.7588 13.359 38.8934 12.8883 38.0428 12.3963C37.2801 11.955 36.5174 11.339 35.6708 11.0843C35.4761 11.0257 35.3548 11.2723 35.4801 11.411C36.0761 12.063 36.9934 12.459 37.7574 12.8817C38.6201 13.3577 39.4961 13.811 40.3828 14.2403C42.1281 15.0843 43.9188 15.8417 45.7401 16.5083C49.4188 17.855 53.2054 18.747 57.0854 19.2657C57.1948 19.2803 57.2214 19.091 57.1121 19.0737Z" fill="#231F20"/>
<path d="M106.159 13.7247C103.116 16.146 100.962 19.3767 98.3709 22.234C97.0789 23.6567 95.6682 24.99 94.0229 25.998C92.0856 27.1874 89.8549 27.862 87.6482 28.3434C87.1949 28.442 87.3976 29.0874 87.8349 29.0247C90.0962 28.6927 92.2669 28.0447 94.2336 26.8554C95.8696 25.8634 97.2936 24.5607 98.5762 23.15C101.283 20.1794 103.466 16.7354 106.451 14.0167C106.651 13.8341 106.362 13.5634 106.159 13.7247Z" fill="#231F20"/>
<path d="M106.397 13.6558C98.4706 15.4251 90.8826 21.1465 87.6133 28.6825C87.4893 28.9678 87.8853 29.2225 88.0453 28.9331C90.0186 25.3731 92.4573 22.1851 95.644 19.6225C98.8413 17.0505 102.585 15.2425 106.563 14.2518C106.949 14.1558 106.785 13.5691 106.397 13.6558Z" fill="#231F20"/>
<path d="M75.6837 16.4006C74.0544 17.406 72.8144 18.838 71.6424 20.3286C70.369 21.9486 69.0957 23.5486 67.5864 24.9606C66.0117 26.4326 64.221 27.69 62.2517 28.5793C60.2397 29.4886 58.177 29.69 56.029 30.054C55.757 30.1006 55.773 30.53 56.029 30.5886C58.033 31.046 60.2357 30.4406 62.093 29.6806C64.0344 28.886 65.777 27.726 67.345 26.338C68.9317 24.9326 70.2784 23.3073 71.533 21.6046C72.8237 19.8526 74.097 18.0553 75.941 16.8406C76.213 16.662 75.965 16.226 75.6837 16.4006Z" fill="#231F20"/>
<path d="M76.015 16.3081C71.7537 17.1721 67.4617 18.4787 63.8137 20.9147C60.339 23.2374 57.6883 26.4467 56.0377 30.2907C55.9043 30.6027 56.299 30.8494 56.4977 30.5601C57.7097 28.7854 58.691 26.8934 60.107 25.2587C61.371 23.8014 62.8563 22.5481 64.4697 21.4961C68.0297 19.1747 72.0483 17.8081 76.159 16.8334C76.5017 16.7507 76.355 16.2387 76.015 16.3081Z" fill="#231F20"/>
<path d="M48.9396 21.8615C47.2929 22.8162 46.2289 24.4175 45.1489 25.9362C43.9462 27.6255 42.8409 29.3882 41.4862 30.9655C40.1756 32.4935 38.6462 33.8042 36.8569 34.7415C35.9089 35.2388 34.9089 35.6255 33.8742 35.9028C32.8929 36.1668 31.8662 36.2508 30.9049 36.5735C30.6089 36.6735 30.5502 37.1655 30.9049 37.2335C32.7449 37.5948 34.8462 36.8188 36.5062 36.0682C38.3769 35.2228 40.0409 33.9962 41.4356 32.4935C42.8036 31.0202 43.9276 29.3402 45.0289 27.6655C46.2236 25.8468 47.3342 23.5228 49.1916 22.2922C49.4582 22.1162 49.2196 21.6988 48.9396 21.8615Z" fill="#231F20"/>
<path d="M49.0326 21.7664C44.81 22.8637 40.5993 24.3371 37.3526 27.3517C34.3913 30.1037 32.5086 33.5371 30.39 36.9171C30.2046 37.2144 30.6793 37.4931 30.8593 37.1918C32.7753 33.9798 35.0286 30.6997 37.734 28.1037C40.9406 25.0264 45.0553 23.6784 49.1566 22.2157C49.4366 22.1171 49.3273 21.6891 49.0326 21.7664Z" fill="#231F20"/>
<path d="M28.7644 27.0828C28.815 26.6162 28.4377 26.1388 28.1657 25.7935C27.871 25.4202 27.5217 25.0948 27.223 24.7242C26.6217 23.9775 26.611 23.0042 26.9884 22.1495C27.0924 21.9175 26.8177 21.6495 26.6137 21.8602C25.879 22.6215 25.827 23.8068 26.287 24.7282C26.5044 25.1655 26.8444 25.5602 27.1937 25.8948C27.379 26.0708 27.5657 26.2482 27.735 26.4415C27.875 26.6015 28.1177 26.8588 28.1124 27.0828C28.103 27.5095 28.719 27.4895 28.7644 27.0828Z" fill="#231F20"/>
<path d="M26.6733 21.6597C25.7986 22.0757 25.2173 22.929 25.1106 23.8877C25.0586 24.3637 25.14 24.8544 25.3253 25.2957C25.4826 25.673 25.8106 26.333 26.284 26.341C26.4546 26.3437 26.536 26.1877 26.5133 26.0384C26.4853 25.8397 26.3173 25.7037 26.1986 25.553C26.0746 25.401 25.9733 25.225 25.8946 25.0464C25.7386 24.6944 25.6746 24.301 25.7133 23.9197C25.7893 23.169 26.292 22.4824 26.9413 22.1197C27.2453 21.9517 26.9786 21.5157 26.6733 21.6597Z" fill="#231F20"/>
<path d="M26.2918 25.7509C25.7505 25.3882 24.9798 25.3162 24.3452 25.3895C24.0198 25.4269 23.6918 25.4762 23.3705 25.5375C23.0385 25.6015 22.7212 25.7869 22.4412 25.9709C22.3292 26.0455 22.3252 26.2629 22.4838 26.2882C22.8145 26.3442 23.0918 26.2002 23.4132 26.1562C23.6905 26.1162 23.9838 26.1175 24.2638 26.1122C24.8278 26.0975 25.4665 25.9922 25.9905 26.2669C26.3332 26.4455 26.6105 25.9642 26.2918 25.7509Z" fill="#231F20"/>
<path d="M22.5457 26.1949C23.1737 26.5802 23.8004 26.9562 24.5004 27.2002C24.851 27.3215 25.211 27.4069 25.5817 27.4375C25.8804 27.4602 26.3777 27.5269 26.5697 27.2455C26.6137 27.1815 26.6004 27.0669 26.5404 27.0149C26.3937 26.8909 26.243 26.9135 26.063 26.9162C25.903 26.9189 25.7404 26.9122 25.5817 26.8922C25.2524 26.8522 24.9244 26.7789 24.6084 26.6802C23.9604 26.4762 23.3417 26.1722 22.7324 25.8762C22.5204 25.7735 22.3417 26.0682 22.5457 26.1949Z" fill="#231F20"/>
<path d="M26.5086 27.01C25.6753 26.8953 25.2646 27.634 24.666 28.054C24.094 28.4553 23.4326 28.706 22.758 28.8673C22.462 28.938 22.542 29.3646 22.8273 29.3793C23.5326 29.4166 24.2473 29.1913 24.8233 28.782C25.1113 28.578 25.3686 28.3433 25.602 28.078C25.8233 27.8273 26.0713 27.5086 26.4393 27.522C26.726 27.5326 26.8033 27.05 26.5086 27.01Z" fill="#231F20"/>
<path d="M22.9911 29.3132C23.8644 29.5679 24.8617 29.8879 25.7751 29.6639C26.1351 29.5746 26.5084 29.4292 26.8057 29.2039C27.0871 28.9919 27.4671 28.6639 27.4404 28.2772C27.4324 28.1532 27.3097 28.0186 27.1724 28.0719C26.8804 28.1852 26.6791 28.4519 26.4057 28.6092C26.1231 28.7706 25.8311 28.8799 25.5111 28.9399C24.6777 29.0932 23.8777 29.0452 23.0404 28.9506C22.8284 28.9266 22.7977 29.2559 22.9911 29.3132Z" fill="#231F20"/>
<path d="M28.1602 27.4332C28.4722 27.7692 28.4656 28.3078 28.3816 28.7332C28.2829 29.2358 28.0469 29.6998 27.8456 30.1678C27.6576 30.6065 27.4669 31.0705 27.3962 31.5452C27.3416 31.9052 27.2949 32.5372 27.6722 32.7398C27.7882 32.8025 27.9296 32.7478 27.9682 32.6212C28.0376 32.3892 27.9136 32.1612 27.9056 31.9252C27.8976 31.6772 27.9416 31.4345 28.0096 31.1958C28.1602 30.6758 28.4842 30.2278 28.7162 29.7425C29.1296 28.8878 29.4109 27.7345 28.5602 27.0332C28.2829 26.8052 27.9096 27.1612 28.1602 27.4332Z" fill="#231F20"/>
<path d="M26.8985 28.3458C27.0252 28.7712 26.9718 29.2058 26.8918 29.6365C26.8105 30.0738 26.7252 30.5072 26.6945 30.9525C26.6425 31.7272 26.8265 32.6085 27.5425 33.0405C27.8612 33.2325 28.2092 32.7858 27.9398 32.5258C27.4012 32.0032 27.2558 31.3085 27.3452 30.5765C27.4452 29.7778 27.7198 28.9858 27.4745 28.1872C27.3612 27.8205 26.7878 27.9765 26.8985 28.3458Z" fill="#231F20"/>
<path d="M25.517 23.9031C23.7197 19.0165 17.9784 17.0045 13.1957 18.1325C10.521 18.7631 8.25705 20.2645 6.32371 22.1751C5.35038 23.1391 4.45971 24.1858 3.63038 25.2751C2.73171 26.4551 1.80105 27.6965 1.20105 29.0565C1.09838 29.2898 1.40372 29.6018 1.59438 29.3591C3.17172 27.3418 4.48771 25.1925 6.29705 23.3498C8.09971 21.5138 10.1557 19.9898 12.649 19.2525C17.4757 17.8218 22.4157 19.8191 24.9517 24.1418C25.1237 24.4338 25.641 24.2418 25.517 23.9031Z" fill="#231F20"/>
<path d="M1.41996 29.5646C1.49729 29.5953 1.58663 29.602 1.66796 29.6113C1.74796 29.6206 1.82929 29.6246 1.90929 29.6233C1.94929 29.622 1.99063 29.6206 2.03063 29.6166C2.09596 29.61 2.15063 29.5926 2.20529 29.5593C2.21996 29.5513 2.23196 29.542 2.24529 29.5353C2.31196 29.4886 2.38796 29.434 2.42529 29.3606C2.45729 29.2966 2.45596 29.2246 2.41196 29.1673C2.36929 29.1126 2.29596 29.086 2.22796 29.1046C2.22529 29.106 2.22129 29.1073 2.21729 29.1073C2.19863 29.1073 2.27063 29.1046 2.25196 29.1033C2.24396 29.102 2.23596 29.1033 2.22796 29.1033C2.21863 29.1033 2.20663 29.1006 2.19729 29.102C2.19463 29.102 2.25996 29.1113 2.23463 29.1073C2.22929 29.106 2.22529 29.1046 2.21863 29.1033C2.14929 29.0913 2.08529 29.0593 2.01196 29.0633C1.89729 29.0713 1.78129 29.066 1.66796 29.05C1.69329 29.054 1.71729 29.0566 1.74263 29.0606C1.68663 29.0526 1.62796 29.042 1.57463 29.022C1.59729 29.0313 1.61863 29.0406 1.64263 29.05C1.64129 29.0486 1.63863 29.0486 1.63729 29.0473C1.59329 29.0233 1.54529 29.01 1.49463 29.01C1.47063 29.0126 1.44529 29.0166 1.41996 29.0206C1.33463 29.038 1.26929 29.106 1.23729 29.1833C1.20663 29.2566 1.20663 29.3273 1.23729 29.4006C1.27329 29.4873 1.33463 29.53 1.41996 29.5646Z" fill="#231F20"/>
<path d="M2.07559 29.4409C1.57825 29.8009 1.27292 30.3169 0.994255 30.8516C0.858255 31.1089 0.726255 31.3676 0.568921 31.6129C0.492921 31.7302 0.408921 31.8422 0.332921 31.9596C0.244921 32.0929 0.190255 32.2276 0.136921 32.3782C0.0795881 32.5382 0.251588 32.6716 0.396921 32.6382C1.01825 32.4996 1.26625 31.7769 1.49425 31.2556C1.71959 30.7436 1.94359 30.2089 2.38492 29.8422C2.60492 29.6582 2.31159 29.2702 2.07559 29.4409Z" fill="#231F20"/>
<path d="M0.0463783 32.4747C0.354378 32.9801 0.773045 33.4067 1.26904 33.7294C1.51704 33.8921 1.78771 34.0161 2.06904 34.1121C2.34771 34.2041 2.70638 34.2934 2.95038 34.0827C3.00771 34.0321 3.01838 33.9294 2.97838 33.8654C2.83171 33.6321 2.52504 33.5747 2.27971 33.4881C2.06371 33.4107 1.83571 33.2987 1.61838 33.1694C1.19971 32.9227 0.835712 32.5854 0.562378 32.1734C0.351712 31.8561 -0.154955 32.1441 0.0463783 32.4747Z" fill="#231F20"/>
<path d="M2.65248 33.6622C2.33381 33.7382 2.04181 33.9022 1.79915 34.1209C1.73648 34.1796 1.69781 34.2822 1.69781 34.3662C1.69781 34.4516 1.73648 34.5542 1.79915 34.6129C1.86581 34.6729 1.95381 34.7182 2.04581 34.7142C2.13915 34.7102 2.22181 34.6782 2.29115 34.6129C2.32848 34.5782 2.36715 34.5449 2.40715 34.5142C2.38448 34.5302 2.36048 34.5489 2.33781 34.5676C2.44448 34.4862 2.55915 34.4182 2.68181 34.3649C2.65515 34.3769 2.62715 34.3889 2.59915 34.4009C2.67648 34.3676 2.75381 34.3422 2.83381 34.3222C2.91648 34.3009 2.99648 34.2382 3.03915 34.1649C3.08181 34.0916 3.09915 33.9836 3.07248 33.9009C3.01381 33.7196 2.83915 33.6182 2.65248 33.6622Z" fill="#231F20"/>
<path d="M1.88037 34.8342C7.23237 36.4876 11.9164 41.0809 17.8697 40.2342C20.3404 39.8822 22.499 38.6316 24.179 36.8116C25.7697 35.0889 27.471 32.7956 27.4004 30.3396C27.391 29.9849 26.807 29.8662 26.7497 30.2502C26.063 34.9409 21.6257 39.2582 16.8297 39.4062C11.455 39.5716 7.04971 35.5489 2.07504 34.1329C1.62171 34.0036 1.43504 34.6956 1.88037 34.8342Z" fill="#231F20"/>
<path d="M2.45265 29.6454C5.92865 26.9174 9.26465 24.0841 13.7446 23.2987C15.7086 22.9547 17.762 22.9681 19.718 23.3627C20.7646 23.5734 21.802 23.8881 22.7793 24.3187C23.2526 24.5281 23.714 24.7654 24.1593 25.0281C24.5273 25.2441 24.798 25.5041 25.2366 25.4667C25.3726 25.4547 25.4806 25.3401 25.442 25.1987C25.222 24.3934 23.8913 23.9307 23.1953 23.6094C22.2313 23.1654 21.2273 22.8254 20.1926 22.5987C18.1193 22.1441 15.9753 22.1041 13.8793 22.4241C9.15798 23.1454 5.44998 26.0654 2.12998 29.3227C1.91531 29.5334 2.22865 29.8214 2.45265 29.6454Z" fill="#231F20"/>
<path d="M2.37637 34.2834C4.80837 34.7114 7.01637 35.7834 9.17637 36.9421C10.315 37.5541 11.439 38.1914 12.663 38.6194C15.9724 39.7767 19.7537 39.1767 22.859 37.6821C23.0537 37.5887 22.9177 37.2727 22.7124 37.3354C19.295 38.3794 15.9364 39.0941 12.4857 37.7767C11.1817 37.2781 9.97904 36.5487 8.74304 35.9114C6.7777 34.8994 4.74704 34.0087 2.55504 33.6341C2.13237 33.5621 1.9497 34.2074 2.37637 34.2834Z" fill="#231F20"/>
<path d="M24.8908 25.5412C21.1201 24.4372 16.8508 23.3732 13.0414 24.8985C12.9428 24.9372 12.9788 25.0905 13.0854 25.0612C17.0414 23.9745 20.9468 24.7612 24.8094 25.8345C24.9988 25.8865 25.0788 25.5958 24.8908 25.5412Z" fill="#231F20"/>
<path d="M12.6674 21.3173C14.7861 21.0359 17.0061 21.1799 19.0808 21.6839C20.2168 21.9599 21.3301 22.3559 22.3621 22.9053C23.4688 23.4959 24.3181 24.2826 25.2234 25.1279C25.3008 25.2013 25.4421 25.1066 25.3768 25.0119C24.0661 23.0986 21.4861 22.0093 19.3208 21.4639C17.1474 20.9159 14.8594 20.7853 12.6448 21.1466C12.5488 21.1626 12.5701 21.3306 12.6674 21.3173Z" fill="#231F20"/>
<path d="M14.379 19.7013C16.4897 19.4106 18.6497 19.9773 20.5284 20.9293C21.4644 21.4026 22.3537 21.9746 23.159 22.648C23.9444 23.304 24.571 24.0706 25.2684 24.8106C25.3684 24.9173 25.527 24.7826 25.463 24.66C24.991 23.7453 24.1564 22.9693 23.3657 22.328C22.483 21.6106 21.515 20.9973 20.4844 20.516C18.567 19.6226 16.4217 19.132 14.311 19.4546C14.1484 19.4813 14.219 19.724 14.379 19.7013Z" fill="#231F20"/>
<path d="M8.7449 29.0842C11.4822 27.8269 14.5329 27.7442 17.4942 27.7682C18.8502 27.7789 20.2062 27.8002 21.5609 27.7776C22.7676 27.7562 24.2569 27.8776 25.3969 27.4496C25.4902 27.4149 25.4729 27.2882 25.3742 27.2789C24.6809 27.2136 23.9502 27.3616 23.2542 27.4002C22.4996 27.4416 21.7449 27.4589 20.9889 27.4656C19.6062 27.4802 18.2236 27.4509 16.8396 27.4469C14.0262 27.4416 11.2356 27.7082 8.6849 28.9816C8.61423 29.0162 8.67556 29.1162 8.7449 29.0842Z" fill="#231F20"/>
<path d="M11.2618 30.5608C13.4858 29.8661 15.8218 29.8088 18.1285 29.6741C20.1538 29.5554 22.4778 29.4354 24.2952 28.4434C24.3872 28.3928 24.3245 28.2448 24.2245 28.2741C23.1485 28.5968 22.1138 28.9288 20.9978 29.0914C19.8605 29.2581 18.7098 29.3274 17.5632 29.3954C15.4112 29.5261 13.2605 29.6514 11.2032 30.3461C11.0672 30.3914 11.1232 30.6034 11.2618 30.5608Z" fill="#231F20"/>
<path d="M7.35623 33.614C10.8336 32.9967 14.3869 33.382 17.8736 32.8834C19.3269 32.6767 20.7482 32.3114 22.1122 31.7674C23.2736 31.3047 24.7002 30.742 25.4816 29.726C25.6709 29.4807 25.3216 29.2647 25.1109 29.354C24.4949 29.614 23.9602 30.0354 23.3696 30.35C22.6976 30.7074 21.9976 31.0047 21.2802 31.2567C19.9069 31.7394 18.4629 32.0847 17.0176 32.2714C13.7616 32.694 10.4802 32.5127 7.26423 33.278C7.04423 33.3314 7.13889 33.6514 7.35623 33.614Z" fill="#231F20"/>
<path d="M14.6661 34.5177C17.0928 34.407 19.5994 34.299 21.8714 33.3523C23.6381 32.615 25.4648 31.287 26.1701 29.4363C26.2074 29.339 26.0514 29.275 26.0008 29.367C24.9968 31.207 23.5034 32.4857 21.5368 33.2323C19.3514 34.0643 16.9781 34.183 14.6661 34.3003C14.5274 34.3083 14.5261 34.5243 14.6661 34.5177Z" fill="#231F20"/>
<path d="M16.2462 37.2027C18.7955 37.4747 21.7689 36.8227 23.5649 34.8813C25.1009 33.2213 26.3435 31.0267 27.0555 28.884C27.0875 28.788 26.9342 28.7213 26.8929 28.8147C26.0129 30.824 24.9702 32.8813 23.5102 34.536C21.7529 36.528 18.8182 37.248 16.2462 37.012C16.1235 37.0013 16.1262 37.1893 16.2462 37.2027Z" fill="#231F20"/>
<path d="M48.2664 22.0725C45.077 24.0965 42.4717 26.8419 39.8544 29.5325C38.5477 30.8765 37.229 32.2045 35.8317 33.4539C34.325 34.8032 32.7037 35.9219 30.989 36.9859C30.7664 37.1232 30.961 37.4392 31.1917 37.3312C34.5637 35.7565 37.2784 32.8605 39.7944 30.1992C42.473 27.3672 45.1237 24.4685 48.4264 22.3445C48.5957 22.2352 48.4384 21.9632 48.2664 22.0725Z" fill="#231F20"/>
<path d="M47.9976 22.3367C44.8162 24.0234 41.6376 25.6607 38.8536 27.9781C37.4136 29.1767 36.1682 30.5527 34.9669 31.9834C33.6709 33.5247 32.3522 35.0527 31.1256 36.6501C30.9869 36.8314 31.2896 37.0607 31.4416 36.8941C34.0016 34.0874 36.1789 30.8874 39.0736 28.4021C41.7896 26.0687 44.9842 24.2527 48.1069 22.5261C48.2296 22.4567 48.1202 22.2714 47.9976 22.3367Z" fill="#231F20"/>
<path d="M75.0105 16.6141C71.9465 18.6968 69.3558 21.3394 66.6212 23.8168C63.8025 26.3714 60.8518 28.4914 57.3278 29.9501C57.0998 30.0448 57.1798 30.4034 57.4332 30.3328C60.8105 29.3834 63.7425 27.0314 66.3038 24.7261C69.2358 22.0861 71.9398 19.1781 75.1665 16.8821C75.3265 16.7674 75.1772 16.5021 75.0105 16.6141Z" fill="#231F20"/>
<path d="M75.0938 16.9045C71.6685 18.6178 68.2632 20.3645 65.0485 22.4538C62.0658 24.3925 58.9472 26.7004 56.8018 29.5751C56.6632 29.7604 56.9592 29.9764 57.1178 29.8191C58.4272 28.5031 59.6765 27.1671 61.1072 25.9778C62.5512 24.7751 64.0752 23.6778 65.6458 22.6471C68.7245 20.6245 71.9778 18.8685 75.2085 17.1005C75.3392 17.0311 75.2245 16.8391 75.0938 16.9045Z" fill="#231F20"/>
<path d="M105.932 13.8875C102.724 15.7875 100.025 18.3662 97.3157 20.8995C94.4824 23.5475 91.6077 26.0035 88.2277 27.9329C87.9944 28.0675 88.1997 28.4035 88.4357 28.2902C91.7637 26.6942 94.5424 24.0355 97.185 21.5182C99.9797 18.8555 102.757 16.1422 106.052 14.0929C106.182 14.0129 106.065 13.8075 105.932 13.8875Z" fill="#231F20"/>
<path d="M105.787 14.157C102.402 15.4677 99.2072 17.2703 96.3192 19.4703C93.5378 21.5903 90.7312 24.077 88.7565 26.9903C88.6352 27.169 88.9085 27.377 89.0552 27.2197C91.5218 24.561 93.8832 21.9423 96.7952 19.741C99.6138 17.613 102.662 15.833 105.875 14.365C105.991 14.313 105.907 14.1103 105.787 14.157Z" fill="#231F20"/>
<path d="M160.162 37.0335C159.85 36.3481 159.565 35.9281 159.038 35.3748C158.529 34.8388 157.989 34.3321 157.454 33.8228C156.381 32.8001 155.278 31.8068 154.145 30.8495C151.912 28.9641 149.573 27.1895 147.133 25.5775C142.222 22.3335 136.941 19.6655 131.353 17.8121C120.024 14.0588 108.216 12.7041 96.3316 13.5948C89.4169 14.1135 82.5529 15.1868 75.7022 16.2335C75.0689 16.3308 75.3382 17.2935 75.9676 17.1975C87.5156 15.4215 99.1742 13.5855 110.889 14.5388C122.76 15.5055 134.49 18.8201 144.632 25.1601C147.436 26.9108 150.133 28.8361 152.689 30.9335C153.942 31.9628 155.168 33.0308 156.357 34.1348C156.968 34.7015 157.564 35.2815 158.158 35.8628C158.757 36.4508 159.238 36.8388 159.977 37.2201C160.104 37.2841 160.218 37.1561 160.162 37.0335Z" fill="#231F20"/>
<path d="M74.9474 16.5438C65.8341 18.0345 56.7728 19.8198 47.7888 21.9598C47.3061 22.0745 47.5101 22.8212 47.9928 22.7038C56.9608 20.5318 65.9901 18.6145 75.0781 17.0158C75.3888 16.9598 75.2541 16.4945 74.9474 16.5438Z" fill="#231F20"/>
<path d="M43.0678 23.8236C40.7905 24.7756 38.3732 25.1556 35.9492 25.529C34.7518 25.713 33.5532 25.8903 32.3652 26.1263C31.7958 26.2396 31.2252 26.3596 30.6652 26.513C30.3465 26.601 30.0305 26.701 29.7172 26.8063C29.5092 26.877 29.0492 27.1516 28.8358 27.117C28.3705 27.041 27.9265 27.4383 28.1305 27.9223C28.3318 28.401 28.9132 28.3663 29.1918 27.9943C29.2958 27.857 29.8052 27.7716 29.9678 27.7183C30.2825 27.617 30.6012 27.525 30.9198 27.4343C31.4785 27.2756 32.0385 27.125 32.6038 26.993C33.8212 26.7103 35.0518 26.4943 36.2798 26.2583C38.6585 25.8036 41.0332 25.2583 43.2305 24.2116C43.4452 24.109 43.2905 23.7316 43.0678 23.8236Z" fill="#231F20"/>
</svg>
